<?xml version="1.0" standalone="no"?>
<!DOCTYPE svg PUBLIC "-//W3C//DTD SVG 20010904//EN"
 "http://www.w3.org/TR/2001/REC-SVG-20010904/DTD/svg10.dtd">
<svg version="1.0" xmlns="http://www.w3.org/2000/svg"
 width="864.000000pt" height="1152.000000pt" viewBox="0 0 864.000000 1152.000000"
 preserveAspectRatio="xMidYMid meet">

<g transform="translate(0.000000,1152.000000) scale(0.100000,-0.100000)"
fill="#000000" stroke="none">
<path d="M0 10640 c0 -831 1 -880 18 -880 35 0 407 138 572 211 14 7 34 15 45
19 11 4 62 26 113 50 51 23 110 47 131 55 21 7 47 18 57 24 18 10 57 27 249
113 85 38 131 59 308 142 217 102 249 116 258 116 5 0 9 5 9 10 0 6 5 10 11
10 6 0 41 14 77 31 99 46 165 49 257 9 11 -5 65 -14 120 -20 55 -5 115 -13
134 -17 24 -4 32 -2 27 6 -5 8 9 11 45 11 l52 0 -6 55 c-5 52 -4 55 18 55 26
0 41 -26 25 -45 -6 -7 -7 -20 -4 -29 4 -9 0 -24 -9 -34 -8 -9 -17 -46 -21 -82
-9 -112 -21 -165 -44 -202 -13 -20 -26 -38 -30 -40 -15 -7 -61 -106 -76 -164
-20 -76 -20 -84 -1 -84 8 0 15 -7 15 -15 0 -8 -7 -15 -15 -15 -16 0 -35 -38
-35 -71 0 -10 7 -19 15 -19 8 0 15 -7 15 -16 0 -11 -5 -14 -16 -10 -14 5 -15
-5 -9 -91 6 -96 28 -215 81 -443 19 -80 27 -147 29 -220 1 -58 5 -124 10 -147
13 -72 -9 -49 -34 35 -55 183 -61 194 -114 194 -48 0 -240 -32 -250 -42 -5 -4
-3 -17 4 -28 18 -28 10 -33 -55 -35 -46 -1 -55 -4 -51 -17 2 -8 11 -49 20 -90
9 -41 19 -77 23 -80 4 -3 8 -19 9 -35 l3 -31 -93 -17 c-50 -10 -114 -22 -142
-28 -27 -5 -122 -23 -210 -40 -140 -27 -214 -40 -366 -65 l-36 -6 -8 88 c-5
49 -9 94 -10 99 -1 6 -3 18 -3 28 -2 18 -46 25 -56 8 -10 -16 -59 -23 -67 -9
-17 26 -9 33 36 30 28 -3 45 0 45 7 0 6 -5 11 -11 11 -6 0 -8 7 -5 15 6 16
-13 55 -26 55 -4 0 -8 -10 -10 -22 -2 -18 -12 -24 -52 -31 -41 -7 -50 -5 -61
10 -17 24 -33 8 -17 -17 7 -11 12 -30 12 -43 0 -22 -8 -26 -102 -47 -57 -12
-110 -26 -118 -30 -36 -18 -95 -21 -115 -5 -19 15 -17 16 27 13 40 -3 49 0 57
18 5 12 17 21 27 21 9 -1 19 4 21 11 3 8 -6 12 -26 12 -16 0 -33 5 -36 10 -11
17 -35 11 -35 -9 0 -13 -10 -21 -34 -25 -31 -6 -34 -10 -31 -34 2 -15 4 -33 4
-39 1 -7 12 -13 26 -13 16 0 25 -6 25 -15 0 -8 -5 -15 -11 -15 -8 0 -8 -4 1
-15 12 -15 6 -35 -11 -35 -5 0 -9 5 -9 11 0 7 -8 18 -17 25 -17 13 -17 13 0
14 9 0 17 4 17 10 0 12 -37 22 -65 18 -11 -2 -21 2 -22 7 -2 6 0 10 5 10 30 1
44 49 20 73 -18 18 -38 14 -38 -7 0 -15 -10 -20 -46 -26 -29 -4 -50 -3 -57 4
-17 17 -35 13 -33 -6 2 -24 -67 -40 -99 -23 -25 13 -45 7 -45 -15 0 -18 -78
-31 -93 -16 -17 17 -35 13 -42 -9 -3 -11 -15 -20 -26 -20 -16 0 -19 -7 -19
-49 0 -27 7 -62 15 -77 13 -25 13 -29 1 -32 -12 -3 -15 -67 -16 -412 l-1 -409
105 4 c58 2 113 8 124 14 10 5 27 10 38 10 10 0 56 6 101 14 68 12 80 12 76 0
-4 -11 0 -11 23 -3 16 6 32 16 36 23 4 6 35 12 72 12 35 1 71 6 78 12 18 15
68 22 68 10 0 -5 7 -4 15 3 10 9 15 9 15 1 0 -18 30 -13 38 7 4 9 14 19 22 21
8 2 23 6 33 8 11 4 17 0 17 -10 0 -9 3 -18 8 -20 12 -8 82 24 82 38 0 19 37
25 51 9 17 -21 52 -17 85 8 33 26 53 31 71 16 19 -15 81 0 93 22 9 18 18 19
66 14 48 -6 57 -4 75 15 21 22 59 29 59 10 0 -15 72 -2 85 15 12 16 64 26 71
15 10 -17 43 -9 74 17 27 23 34 25 57 15 28 -13 94 -5 105 13 4 6 36 11 73 11
36 0 69 5 73 11 4 5 33 10 64 11 34 0 65 6 74 14 10 8 39 14 65 14 33 0 57 7
76 22 22 15 34 18 46 11 12 -6 29 -6 51 2 30 9 34 15 34 44 0 19 5 44 12 56
12 22 12 22 33 2 12 -10 30 -22 41 -26 10 -3 16 -12 13 -20 -3 -8 1 -17 8 -20
8 -3 25 -27 39 -53 l25 -48 1 43 c0 23 4 42 9 42 10 0 28 -48 37 -94 2 -14 9
-38 14 -52 9 -24 12 -25 23 -11 7 9 26 18 43 19 24 2 30 6 26 18 -5 13 -4 13
12 0 16 -12 20 -12 36 9 9 14 22 21 29 17 6 -4 11 -1 11 8 0 8 8 20 18 25 13
8 14 10 2 11 -13 0 -13 2 -1 9 12 8 10 16 -12 45 -16 20 -27 47 -27 65 0 29
-2 31 -37 31 -21 0 -55 -4 -75 -9 -33 -8 -38 -6 -43 13 -8 26 -23 62 -42 99
-8 15 -11 27 -7 27 3 0 2 6 -4 13 -5 6 -22 50 -37 97 -16 47 -32 91 -38 98 -5
6 -7 12 -4 12 3 0 -6 30 -20 68 -14 37 -32 91 -41 120 l-15 52 33 41 c31 39
32 43 21 81 -13 41 -2 71 23 66 23 -3 106 15 106 23 0 5 -9 17 -20 26 -27 23
-25 28 10 43 39 16 58 8 62 -27 4 -34 20 -38 93 -23 41 9 53 15 46 23 -5 7
-10 15 -10 20 -3 32 -38 70 -82 90 -50 22 -51 23 -80 107 -32 94 -81 273 -99
365 -15 74 -15 235 0 301 33 140 115 246 189 243 13 0 13 -2 -3 -12 -51 -31
-101 -97 -75 -97 7 0 9 -11 5 -30 -3 -16 -9 -44 -12 -61 -5 -24 -2 -33 15 -45
12 -9 21 -26 21 -40 0 -21 -3 -24 -22 -19 -16 4 -19 3 -9 -3 9 -7 10 -12 2
-16 -6 -4 -11 -15 -11 -25 0 -21 -53 -71 -75 -71 -8 0 -15 -4 -15 -10 0 -5 7
-7 16 -3 14 5 16 1 10 -28 -19 -105 -19 -105 5 -128 44 -41 118 -21 203 56 44
41 99 69 104 54 6 -19 34 -12 121 32 73 36 85 46 88 71 2 15 13 40 23 55 28
37 53 135 56 214 2 60 6 71 34 104 27 30 31 42 27 73 -2 20 -17 56 -32 79 -14
24 -24 49 -21 56 5 14 179 101 224 111 15 4 34 13 42 20 8 7 34 17 58 22 23 6
53 17 67 26 13 9 30 16 37 16 7 0 25 6 39 14 14 7 39 16 55 20 16 4 90 31 164
61 167 66 170 67 187 35 17 -34 8 -57 -42 -110 -23 -25 -75 -91 -115 -147 -39
-56 -78 -107 -86 -113 -23 -20 -150 55 -201 118 -44 55 -53 50 -33 -17 13 -46
42 -76 123 -122 77 -46 79 -52 46 -145 -30 -83 -30 -180 0 -269 29 -85 41 -99
111 -135 130 -65 317 -110 460 -110 112 0 108 5 170 -222 51 -189 93 -459 105
-672 3 -60 10 -115 16 -122 12 -14 4 -23 -94 -102 -90 -74 -108 -87 -273 -211
-76 -57 -156 -116 -176 -132 -20 -16 -40 -29 -43 -29 -4 0 -21 -11 -39 -25
-18 -14 -38 -25 -44 -25 -7 0 -12 -4 -12 -9 0 -5 -37 -32 -83 -62 -250 -162
-285 -187 -316 -227 -36 -48 -34 -62 13 -62 86 0 218 80 513 308 62 48 138
106 170 129 32 23 67 48 78 57 51 39 126 100 195 155 41 34 80 59 85 58 18 -6
27 -119 21 -274 -4 -83 -9 -171 -12 -195 l-6 -44 -48 -2 c-27 -1 -60 -6 -75
-12 -14 -5 -50 -10 -78 -10 -82 0 -249 -32 -255 -49 -2 -6 -19 -11 -38 -11
-19 0 -42 -6 -50 -12 -32 -27 -41 -34 -73 -50 -18 -10 -41 -18 -50 -18 -23 0
-42 -60 -39 -122 2 -38 7 -49 27 -58 l23 -11 -36 -24 c-20 -14 -40 -25 -44
-25 -4 0 -20 -11 -37 -24 -24 -20 -27 -26 -17 -39 7 -8 29 -18 50 -22 20 -4
46 -18 59 -31 12 -13 28 -24 35 -24 10 0 10 2 1 8 -7 4 8 7 32 7 34 0 41 -3
33 -13 -9 -10 -6 -11 13 -4 13 5 29 7 36 5 6 -2 28 3 48 11 21 9 43 16 49 16
6 0 33 -34 61 -75 27 -41 52 -71 55 -66 3 5 43 9 89 10 67 1 87 5 97 19 12 15
13 11 14 -30 0 -26 4 -50 10 -53 14 -9 12 -62 -2 -68 -10 -3 -10 -9 0 -27 17
-27 7 -40 -12 -15 -8 12 -20 16 -35 12 -11 -3 -21 -1 -21 4 0 5 -9 0 -20 -11
-11 -11 -27 -20 -36 -20 -9 0 -14 -3 -12 -8 2 -4 25 -50 51 -102 27 -52 42
-88 34 -80 -8 8 -38 58 -65 110 -39 74 -49 102 -45 124 5 24 3 28 -9 23 -9 -3
-47 -13 -84 -22 -38 -10 -73 -21 -78 -26 -6 -5 -20 -9 -31 -9 -34 0 -125 -30
-125 -41 0 -11 -25 -39 -34 -39 -3 0 -6 6 -6 14 0 8 -9 18 -20 21 -11 3 -20
12 -20 18 0 7 -4 6 -10 -3 -7 -11 -14 -3 -31 38 -20 47 -39 68 -39 41 0 -6 -7
-17 -15 -25 -13 -14 -15 -13 -17 8 0 13 -1 29 -1 36 1 6 -4 12 -9 12 -6 0 -8
-13 -4 -31 3 -17 6 -35 6 -40 0 -5 10 -9 23 -9 17 0 25 -9 34 -37 13 -43 8
-53 -33 -56 -26 -2 -29 1 -32 31 -2 17 -8 32 -13 32 -6 0 -9 10 -8 23 5 37
-20 95 -44 103 -33 11 -78 4 -113 -17 -26 -16 -42 -18 -93 -13 -39 5 -61 3
-61 -3 0 -6 -12 -13 -26 -16 -20 -3 -28 0 -31 13 -7 27 -22 29 -109 21 -55 -6
-82 -5 -89 3 -21 23 -83 40 -162 44 -76 3 -102 13 -70 25 6 3 0 6 -16 6 -28 1
-87 45 -87 66 0 15 -38 48 -72 62 -14 7 -29 21 -33 32 -3 12 -11 21 -16 21 -5
0 -9 6 -9 13 0 6 -14 18 -31 26 -17 7 -39 23 -50 34 -10 11 -27 23 -37 26 -33
10 -277 6 -307 -6 -16 -6 -68 -21 -115 -33 -47 -12 -101 -28 -120 -36 -47 -19
-266 -74 -294 -74 -12 0 -31 -7 -42 -15 -10 -8 -31 -15 -47 -15 -15 0 -37 -6
-48 -12 -18 -11 -23 -10 -26 0 -4 11 -9 10 -26 -1 -21 -13 -136 -42 -141 -35
-1 1 -13 24 -27 51 -19 37 -29 47 -49 47 -14 -1 -153 -33 -310 -73 l-285 -72
-4 -30 c-1 -16 2 -61 9 -98 11 -63 11 -69 -6 -82 -11 -7 -20 -10 -22 -5 -2 6
-10 6 -20 0 -15 -8 -61 -21 -87 -25 -19 -3 -35 18 -35 46 0 27 -13 39 -24 21
-2 -4 -24 -9 -48 -11 -24 -1 -44 -6 -46 -12 -2 -5 -8 -9 -13 -9 -23 0 -159
-74 -159 -86 0 -8 -6 -14 -14 -14 -7 0 -21 -11 -30 -25 -9 -14 -23 -25 -31
-25 -9 0 -21 -12 -27 -27 -18 -41 -88 -123 -105 -123 -8 0 -24 -11 -35 -25
-11 -14 -30 -25 -44 -25 -20 0 -24 -5 -24 -28 0 -28 1 -28 55 -27 30 1 52 -2
49 -6 -7 -12 2 -11 87 6 100 19 135 23 264 30 61 3 126 8 146 10 37 5 79 -19
79 -45 0 -8 9 -11 24 -8 17 4 23 1 19 -9 -3 -8 2 -13 16 -13 12 0 21 -5 21
-10 0 -12 38 -9 59 4 11 7 13 5 8 -8 -6 -14 -3 -16 16 -10 22 7 22 6 4 -14
-10 -11 -35 -24 -55 -29 -36 -9 -37 -11 -35 -51 l2 -42 -50 0 c-47 0 -49 1
-43 24 10 42 -27 58 -116 50 -60 -5 -83 -12 -114 -35 -22 -16 -46 -29 -53 -29
-7 0 -17 -9 -23 -20 -6 -11 -19 -20 -30 -20 -33 0 -31 -17 7 -77 51 -78 162
-267 160 -270 -2 -1 -52 -7 -112 -13 -61 -5 -126 -13 -146 -16 l-37 -5 -58 95
c-32 53 -62 96 -67 96 -5 0 0 -15 11 -32 10 -18 30 -53 43 -78 13 -25 34 -60
46 -79 26 -39 29 -61 8 -61 -8 0 -42 45 -75 100 -34 55 -66 103 -71 106 -20
12 -7 -23 31 -87 22 -37 40 -71 40 -74 0 -4 9 -20 21 -36 19 -27 20 -59 2 -59
-4 0 -35 45 -68 101 -33 55 -61 94 -63 86 -2 -8 20 -58 48 -112 35 -66 48
-101 42 -107 -7 -7 -24 9 -51 52 -34 52 -41 59 -41 38 0 -14 12 -46 26 -72 16
-28 23 -53 19 -64 -6 -15 -9 -15 -26 7 -19 23 -19 23 -19 -102 l0 -125 44 -15
45 -15 38 35 c133 124 164 158 152 161 -8 3 -30 11 -49 19 -45 18 -29 28 60
38 81 9 91 15 162 83 31 31 63 59 71 64 11 6 31 -19 83 -99 37 -58 70 -101 72
-94 2 6 -11 35 -29 64 -17 28 -42 68 -54 87 -12 19 -42 67 -68 107 -29 45 -49
88 -53 115 -5 43 -5 43 13 21 10 -12 45 -65 78 -118 78 -126 124 -196 141
-215 12 -12 14 -11 15 10 1 14 1 28 0 32 0 5 4 7 10 5 17 -3 42 91 34 130 -3
18 -10 33 -15 33 -6 0 -10 5 -10 10 0 6 -11 28 -25 50 -14 22 -21 40 -16 40 5
0 18 -17 28 -37 37 -70 60 -42 28 34 -19 44 -19 47 0 40 8 -4 17 -1 21 5 9 14
46 -62 39 -80 -3 -8 -1 -20 4 -26 4 -6 11 -31 14 -56 3 -25 15 -97 26 -160 30
-171 39 -239 39 -300 1 -30 7 -71 15 -90 8 -19 14 -46 13 -60 -1 -14 2 -31 7
-37 5 -7 10 -46 11 -85 1 -41 6 -73 11 -72 6 1 16 -24 23 -55 23 -101 52 -234
71 -331 11 -52 29 -140 40 -195 68 -334 112 -582 107 -605 -3 -15 -1 -31 4
-36 19 -19 64 -322 61 -414 0 -19 4 -45 10 -57 12 -23 13 -21 -36 -78 -17 -20
-28 -26 -32 -17 -2 6 -22 12 -44 12 -33 0 -40 -4 -45 -25 -9 -37 -21 -30 -29
15 -4 22 -11 40 -16 40 -5 0 -9 -18 -9 -40 0 -29 -4 -40 -15 -40 -9 0 -18 7
-21 15 -4 8 -16 15 -29 15 -18 0 -79 24 -95 37 -2 2 2 9 10 14 12 9 12 10 -3
5 -10 -3 -23 -6 -29 -6 -6 0 -8 -11 -6 -25 6 -29 -8 -43 -25 -26 -6 6 -19 11
-29 11 -12 0 -18 7 -18 22 0 20 -1 21 -20 3 -19 -17 -21 -17 -38 -2 -10 10
-30 17 -45 17 -14 0 -29 5 -32 10 -3 6 -19 10 -36 10 -22 0 -29 -5 -29 -20 0
-26 -25 -36 -55 -22 -21 10 -27 8 -39 -9 -14 -20 -14 -20 -70 8 -52 26 -55 30
-56 66 0 20 -4 37 -10 37 -5 0 -10 -17 -10 -38 0 -36 -14 -62 -32 -62 -4 0 -8
11 -8 25 0 27 -13 54 -44 92 -23 27 -36 30 -36 7 0 -20 -24 -44 -44 -44 -24 0
-19 18 14 52 16 16 30 32 30 35 0 10 -46 42 -62 43 -9 0 -19 -8 -21 -18 -3 -9
-5 2 -6 26 -1 39 1 42 18 32 28 -15 40 9 15 29 -11 9 -23 24 -27 34 -9 23 -36
33 -56 20 -12 -7 -20 -6 -29 3 -19 20 49 84 89 84 28 0 29 2 18 22 -11 21 -13
21 -19 4 -6 -18 -7 -18 -24 0 -18 17 -18 18 3 28 11 5 21 15 21 23 0 10 -10
12 -40 7 -27 -4 -40 -3 -40 5 0 19 -20 12 -50 -19 l-30 -31 0 -554 0 -554 38
-3 c32 -3 37 -7 40 -30 3 -24 8 -28 35 -28 51 0 78 -11 75 -29 -2 -10 5 -17
20 -19 12 -2 34 -19 49 -37 32 -41 43 -37 43 16 0 21 5 39 10 39 6 0 10 -16
10 -36 0 -38 15 -38 30 1 5 13 20 25 35 27 21 4 28 1 35 -18 14 -35 80 -30 80
6 0 23 43 34 71 19 27 -14 19 -55 -16 -84 -14 -12 -25 -27 -25 -35 0 -20 101
-65 110 -50 5 8 10 7 17 -2 20 -26 42 -79 37 -92 -3 -8 8 -16 28 -22 22 -7 34
-17 36 -31 4 -26 82 -68 112 -60 11 3 23 1 26 -5 3 -5 12 -7 20 -4 7 3 22 -5
32 -18 14 -18 25 -23 45 -19 16 3 27 1 27 -6 0 -6 8 -11 19 -11 27 0 44 -25
50 -73 6 -39 9 -43 48 -55 24 -8 43 -19 43 -25 0 -5 20 -29 44 -51 24 -23 50
-54 57 -71 11 -24 23 -31 54 -36 50 -8 245 -110 313 -164 33 -26 53 -51 57
-70 16 -69 39 -121 62 -143 20 -18 31 -21 66 -16 45 7 121 51 144 84 8 11 21
20 30 20 10 0 13 5 8 17 -4 10 -11 34 -17 53 -15 58 -51 154 -62 169 -6 8 -10
41 -10 74 1 72 17 90 67 76 18 -5 44 -9 59 -9 16 0 28 -4 28 -10 0 -23 84 2
172 50 10 5 34 14 55 19 21 6 83 21 138 35 55 14 121 26 148 26 26 0 47 5 47
10 0 6 25 10 55 10 40 0 57 4 61 15 4 8 15 15 25 15 10 0 19 -7 19 -15 0 -19
76 -21 83 -2 8 18 28 -14 23 -36 -6 -23 16 -32 44 -17 14 7 19 17 15 29 -6 20
30 41 68 41 22 -1 67 -31 67 -47 0 -4 24 -9 53 -10 28 -1 66 -9 82 -17 35 -18
45 -20 45 -6 0 14 37 50 52 50 21 1 44 42 61 109 9 35 23 71 31 80 8 9 16 34
18 56 3 37 6 41 43 50 22 6 56 19 75 30 39 21 220 39 255 25 11 -5 35 -22 53
-39 18 -17 42 -31 53 -31 31 0 59 19 59 39 0 29 22 40 105 56 86 17 95 20 95
39 0 8 18 30 40 50 29 26 49 36 73 36 52 0 77 11 83 36 3 13 12 24 20 24 7 0
20 12 28 28 28 54 86 91 176 112 30 7 64 18 75 25 11 7 47 19 80 28 33 8 78
20 101 26 22 6 51 20 64 31 13 11 33 20 45 20 23 0 75 35 75 51 0 22 62 107
86 118 17 8 47 9 86 5 51 -6 61 -4 73 12 22 29 18 39 -21 57 l-36 17 24 25
c13 14 28 25 33 25 6 0 16 10 23 21 11 17 20 20 47 16 32 -5 36 -2 62 39 15
25 38 47 50 50 15 4 20 12 18 26 -3 16 -1 18 13 12 35 -16 233 -24 268 -11 19
7 22 3 27 -33 6 -48 44 -130 60 -130 7 0 24 -6 39 -14 15 -8 30 -10 35 -5 5 5
23 -1 43 -16 19 -14 39 -25 46 -25 6 0 17 -7 24 -15 20 -24 150 -1 150 27 0 7
14 21 31 31 27 15 36 16 65 5 19 -7 34 -16 34 -20 0 -4 18 -8 39 -8 22 0 41
-5 44 -12 2 -8 8 -9 13 -4 5 5 4 11 -3 13 -7 3 -13 11 -13 19 0 8 -6 14 -12
14 -7 0 -40 11 -73 25 -73 29 -105 63 -105 112 0 37 -26 103 -41 103 -5 0 -9
7 -9 15 0 8 -13 34 -30 57 -16 22 -30 51 -30 63 0 12 -3 25 -7 29 -4 4 -13 37
-19 74 -7 41 -24 88 -44 121 -25 43 -30 62 -25 85 17 83 16 93 -4 129 -12 21
-21 46 -21 57 0 25 58 261 66 269 3 3 40 6 82 6 94 0 101 12 47 85 -20 28 -32
50 -26 50 6 0 11 6 11 14 0 9 13 12 48 10 26 -2 60 -3 75 -3 16 -1 26 -5 22
-11 -3 -5 -2 -10 4 -10 5 0 11 5 13 11 5 14 243 -5 333 -26 33 -7 110 -25 170
-40 70 -16 131 -25 165 -23 l55 3 0 65 c0 64 0 65 -25 61 -69 -11 -65 -19 -65
119 0 69 -4 131 -8 138 -5 7 -18 10 -30 6 -19 -4 -26 2 -44 43 -24 55 -103
175 -118 180 -6 2 -20 -23 -33 -56 -12 -32 -31 -66 -41 -75 -23 -21 -130 -86
-142 -86 -4 0 -34 -13 -66 -29 -87 -43 -138 -57 -168 -43 -17 8 -26 8 -31 1
-4 -7 -20 -8 -43 -4 -20 4 -67 8 -106 9 -62 1 -70 3 -70 21 0 21 -22 27 -127
39 l-58 6 -14 -35 c-8 -19 -20 -35 -25 -35 -16 0 -157 218 -286 442 -5 9 -30
50 -55 90 -25 40 -47 77 -49 83 -4 9 -66 116 -91 155 -5 8 -30 50 -56 93 -26
43 -51 80 -55 83 -5 3 -18 0 -29 -6 -24 -13 -50 2 -50 27 0 8 -29 67 -65 130
-68 121 -72 132 -54 165 11 21 35 161 46 273 3 33 14 74 24 90 12 22 20 62 25
140 6 95 4 112 -10 124 -22 19 -20 33 15 109 17 37 40 99 50 137 20 73 38 261
39 400 0 117 3 122 58 123 25 1 48 5 51 10 3 5 20 12 36 16 28 7 54 8 225 7
36 0 81 0 100 1 31 1 180 -26 220 -40 15 -5 150 -36 225 -52 22 -4 65 -15 95
-24 30 -9 65 -16 77 -16 12 0 23 -4 25 -10 2 -5 19 -12 38 -14 19 -3 37 -5 40
-7 3 -1 8 -1 12 0 13 2 173 -51 178 -59 3 -4 21 -11 40 -15 19 -4 41 -11 50
-15 35 -19 89 -40 100 -40 6 0 8 -4 5 -10 -3 -5 0 -7 9 -4 9 3 17 -2 21 -15 6
-18 45 -31 45 -15 0 11 -57 59 -94 79 -31 17 -36 24 -31 45 10 39 19 42 71 23
27 -11 74 -20 104 -21 30 -2 100 -7 155 -12 55 -5 145 -12 200 -15 55 -4 162
-15 237 -25 241 -33 302 -35 398 -10 221 57 320 92 320 113 0 11 -57 104 -75
123 -6 6 -33 45 -60 87 -53 81 -63 86 -121 68 -16 -5 -47 -13 -69 -17 -22 -3
-34 -9 -27 -11 15 -6 16 -23 1 -23 -16 0 -129 -73 -129 -84 0 -4 34 -7 77 -5
55 3 77 0 80 -8 3 -8 -5 -13 -19 -14 -22 0 -22 -1 -3 -9 11 -5 14 -9 7 -9 -7
-1 -17 -12 -22 -26 -12 -31 -32 -32 -107 -1 -255 104 -237 99 -250 79 -38 -57
-22 -57 -216 3 -98 31 -184 53 -192 51 -8 -3 -11 -15 -8 -31 3 -14 2 -26 -1
-26 -14 0 -282 69 -309 79 -38 15 -47 14 -47 -3 0 -8 -8 -17 -17 -19 -11 -3
-7 -5 10 -6 34 -1 34 -6 1 -35 -23 -19 -25 -25 -15 -44 7 -12 21 -22 34 -22
16 0 18 -3 9 -9 -20 -12 -79 2 -147 35 -92 44 -87 84 9 84 27 0 47 2 44 5 -13
13 -313 32 -305 19 3 -5 36 -24 74 -42 45 -22 76 -45 90 -67 12 -18 19 -36 16
-39 -15 -15 -70 -4 -112 23 -25 15 -75 36 -111 45 -95 25 -99 28 -75 68 10 18
25 40 33 48 13 13 7 16 -49 27 -35 6 -83 12 -106 12 -23 1 -45 6 -49 12 -4 8
-9 7 -15 -2 -7 -11 -9 -10 -9 4 0 9 5 17 10 17 7 0 7 7 0 20 -8 14 -17 19 -30
15 -10 -3 -21 -1 -25 5 -8 13 -113 3 -132 -12 -9 -7 -13 -7 -13 0 0 5 26 33
59 61 43 38 67 51 90 51 17 0 31 5 31 10 0 6 11 10 25 10 14 0 25 5 25 10 0 6
9 10 20 10 11 0 20 7 20 15 0 8 9 15 21 15 11 0 64 11 117 24 147 36 193 46
237 48 22 1 52 7 67 15 27 13 66 12 88 -2 6 -4 34 -7 62 -7 42 1 55 5 72 26
12 14 43 35 69 46 60 25 60 25 47 0 -6 -11 -7 -20 -2 -20 4 0 18 9 30 20 12
11 25 20 30 20 6 0 23 7 38 15 39 20 51 19 57 -5 4 -14 14 -20 34 -20 16 0 34
-5 41 -12 7 -7 12 -8 12 -2 0 5 -5 15 -12 22 -7 7 -9 12 -5 12 4 0 3 9 -3 20
-9 16 -7 20 12 25 67 17 111 1 152 -55 16 -22 33 -37 37 -34 14 9 21 91 10
113 -11 20 -9 21 26 22 65 3 71 4 79 12 4 4 24 7 44 7 20 0 63 9 96 20 32 11
101 24 153 29 l94 9 37 -37 c42 -41 53 -72 39 -108 -8 -21 -7 -24 7 -19 8 3
24 6 35 6 12 0 21 10 27 33 9 34 41 57 81 57 19 0 21 -3 11 -15 -19 -23 -2
-37 25 -19 18 12 29 13 42 5 16 -9 15 -10 -9 -11 -37 0 -35 -10 7 -51 52 -50
71 -94 55 -124 -10 -19 -10 -27 -1 -39 7 -8 10 -20 6 -26 -3 -5 -1 -10 4 -10
6 0 11 -4 11 -10 0 -5 -9 -10 -20 -10 -21 0 -80 -26 -90 -39 -3 -4 -20 -13
-37 -20 -45 -18 -41 -37 9 -45 22 -4 54 -14 69 -23 25 -15 29 -15 54 1 34 22
201 76 236 76 15 0 42 -6 61 -14 19 -8 58 -18 86 -22 l52 -7 0 127 c0 77 -4
126 -10 126 -5 0 -10 -5 -10 -12 0 -9 -3 -9 -12 0 -7 7 -22 12 -34 12 -13 0
-25 4 -28 9 -3 4 -20 11 -38 15 -28 6 -30 8 -15 17 26 15 20 29 -13 29 -20 0
-30 -5 -30 -15 0 -13 -4 -13 -22 -3 -24 14 -47 38 -48 51 0 4 11 7 25 7 31 0
83 44 65 55 -8 5 -7 12 6 26 19 21 68 27 61 7 -2 -7 -14 -12 -25 -10 -12 2
-22 -2 -22 -7 0 -6 5 -11 11 -11 6 0 26 -7 44 -16 18 -8 46 -14 62 -12 28 3
28 3 31 86 l3 82 -27 0 c-15 0 -77 11 -138 26 -61 14 -121 27 -133 30 -34 7
-28 22 13 30 20 4 32 10 27 15 -5 5 -32 2 -63 -7 -50 -15 -185 -34 -253 -36
-15 0 -36 7 -47 17 -12 11 -26 15 -37 10 -10 -4 -31 -9 -48 -11 -16 -2 -33
-11 -38 -19 -4 -8 -20 -15 -34 -15 -20 0 -23 -3 -14 -14 12 -14 14 -13 -90
-50 -26 -9 -68 -17 -94 -18 -30 0 -42 -4 -34 -9 11 -7 11 -9 -1 -9 -69 -3
-135 -12 -145 -20 -6 -5 -15 -7 -18 -4 -4 4 -19 1 -35 -5 -16 -7 -58 -14 -93
-15 -35 -2 -66 -5 -69 -6 -3 -2 -16 -3 -30 -4 -14 -1 -24 -6 -22 -13 1 -7 -2
-13 -8 -13 -5 0 -10 4 -10 9 0 5 -9 7 -20 4 -11 -3 -20 -8 -20 -12 0 -3 -10
-6 -22 -7 -48 -2 -94 -12 -132 -28 -21 -10 -41 -15 -44 -12 -3 3 1 6 8 6 7 0
11 2 8 5 -3 3 -21 -2 -41 -10 -20 -8 -48 -15 -62 -15 -14 0 -25 -5 -25 -11 0
-7 -12 -9 -36 -4 -21 3 -40 3 -43 -2 -7 -10 -132 -44 -181 -49 -55 -7 -69 -10
-76 -17 -4 -4 -23 -4 -41 -1 -21 4 -41 1 -56 -8 -12 -8 -56 -20 -97 -27 -41
-7 -87 -18 -102 -23 -15 -6 -34 -8 -42 -5 -7 3 -18 1 -24 -5 -11 -11 -32 -3
-32 13 0 5 9 9 20 9 11 0 20 4 20 9 0 12 -66 34 -79 27 -5 -3 -78 -6 -162 -7
-102 -1 -168 -6 -196 -16 -33 -11 -46 -11 -61 -2 -12 7 -27 9 -38 4 -26 -11
-51 -15 -109 -18 -27 -2 -57 -6 -65 -10 -97 -42 -219 -57 -242 -29 -19 22 -84
220 -103 314 -16 76 -86 323 -112 394 -13 37 -13 47 2 98 10 36 33 78 60 110
77 95 193 273 244 373 46 93 107 259 147 402 20 73 40 87 134 93 l55 3 -5
-155 c-8 -281 -10 -265 27 -268 31 -3 31 -3 23 33 -7 30 -5 40 11 56 23 23 33
24 53 4 13 -13 13 -19 0 -43 -20 -38 -18 -55 4 -44 9 5 34 12 55 16 67 12 42
-29 -30 -49 -14 -4 -23 -2 -23 4 0 6 -5 11 -11 11 -6 0 4 -18 21 -40 17 -22
38 -40 46 -40 7 0 21 -11 30 -24 12 -19 28 -26 71 -32 57 -7 75 -23 53 -49
-19 -22 27 -29 122 -17 46 6 135 13 198 16 63 3 116 10 118 16 2 5 19 10 39
10 19 0 41 6 48 14 8 7 37 14 66 15 29 0 57 5 63 11 13 13 66 13 66 0 0 -19
32 -10 37 10 5 17 13 21 47 19 22 -1 60 3 83 9 26 6 45 6 51 0 6 -6 21 -4 42
7 24 13 35 14 46 4 11 -9 21 -9 45 1 17 7 47 13 67 12 20 -1 43 5 52 13 10 9
34 14 66 12 38 -1 55 3 69 17 14 13 28 17 56 13 26 -3 42 0 50 9 6 8 28 14 49
14 24 0 43 7 55 20 10 11 24 20 31 20 20 0 46 31 39 48 -3 8 0 20 6 28 8 10 0
13 -41 12 -62 0 -165 46 -203 92 -59 69 -80 209 -43 278 8 15 24 47 35 72 31
66 57 109 82 136 31 33 12 30 -23 -3 -32 -30 -41 -26 -40 16 0 22 -3 28 -14
24 -8 -3 -14 1 -14 10 0 19 -32 77 -42 77 -4 0 -14 13 -23 30 -14 28 -14 35 4
90 38 115 72 150 169 171 46 9 56 8 84 -9 18 -11 48 -23 66 -27 21 -4 32 -13
32 -23 0 -23 67 -45 74 -25 9 22 24 14 42 -22 9 -19 23 -35 31 -35 8 0 11 5 8
10 -11 17 5 11 39 -15 18 -14 38 -25 44 -25 14 0 86 -69 101 -98 6 -12 17 -22
23 -22 9 0 9 3 0 12 -35 35 -5 36 148 4 63 -13 132 -27 153 -30 38 -7 48 -20
22 -30 -8 -3 -55 -10 -103 -16 -48 -5 -106 -12 -130 -16 l-43 -5 3 -77 3 -77
30 -2 c106 -9 213 -27 233 -40 19 -11 23 -22 20 -51 l-3 -37 63 -21 c35 -11
84 -36 110 -56 51 -39 87 -54 96 -40 3 5 -6 19 -19 32 -14 13 -28 38 -31 57
-3 18 -10 33 -14 33 -5 0 -23 16 -42 36 -42 44 -88 74 -119 75 -22 0 -23 1 -4
9 41 17 145 9 145 -12 0 -14 35 -59 103 -131 l57 -62 0 79 c0 72 -2 81 -30
116 -16 21 -30 43 -30 49 0 5 -9 15 -20 21 -11 6 -20 17 -20 25 0 8 -4 15 -9
15 -5 0 -11 9 -14 20 -3 13 -14 20 -30 20 -30 0 -41 23 -24 51 10 17 9 22 -4
32 -8 7 -24 26 -35 42 -23 36 -33 50 -56 76 -10 10 -18 24 -18 29 0 6 -16 41
-36 79 -19 37 -38 87 -41 111 -5 37 -4 42 13 38 23 -4 65 -63 110 -153 54
-109 85 -160 134 -221 25 -31 45 -60 45 -64 0 -4 15 -21 33 -38 l32 -30 0 208
c0 172 -3 210 -15 220 -8 7 -15 23 -15 35 0 16 -14 34 -42 56 -24 18 -59 47
-78 65 -19 17 -51 37 -70 43 -46 14 -100 48 -100 61 0 8 22 9 68 4 70 -6 86
-1 109 41 7 11 16 11 55 1 26 -6 50 -15 54 -19 16 -15 34 -6 34 18 0 14 -4 25
-10 25 -5 0 -10 9 -10 19 0 11 5 23 10 26 6 3 10 31 10 61 l0 54 -55 0 c-53 0
-220 53 -305 96 -25 13 -69 20 -155 24 -85 4 -137 12 -180 28 -33 12 -79 26
-102 32 -25 6 -43 17 -43 25 0 11 11 13 53 9 117 -12 411 -46 552 -65 83 -10
169 -22 193 -25 l42 -5 0 138 0 139 -47 17 c-41 15 -86 17 -308 16 -198 -1
-240 -4 -175 -10 47 -4 121 -15 165 -24 116 -24 295 -88 283 -101 -3 -2 -92 5
-199 16 -208 22 -486 47 -638 57 -79 5 -91 8 -77 19 16 11 120 29 221 37 22 2
-55 4 -172 5 -190 2 -218 0 -266 -18 -53 -20 -53 -20 -125 0 -39 11 -93 19
-119 19 l-48 -2 40 -7 c22 -5 58 -11 80 -15 51 -9 213 -65 285 -98 30 -14 82
-37 115 -52 81 -37 315 -193 315 -211 0 -17 -26 -6 -64 27 -63 54 -337 205
-350 192 -3 -3 -12 2 -21 11 -9 9 -49 25 -88 37 -40 11 -108 32 -152 46 -44
15 -104 29 -135 32 -43 5 -55 10 -54 23 2 16 -44 17 -637 18 -585 0 -638 -1
-632 -16 4 -12 1 -15 -13 -12 -10 2 -18 10 -17 16 5 19 -35 14 -57 -8 -11 -11
-25 -20 -31 -20 -6 0 -13 9 -16 20 -5 17 -14 20 -64 20 -60 0 -66 -4 -50 -30
7 -10 4 -18 -10 -28 -10 -7 -19 -19 -19 -27 0 -8 -5 -17 -11 -21 -7 -4 -10 6
-9 32 4 66 2 74 -24 74 -14 0 -28 -6 -32 -12 -5 -7 -7 -176 -6 -375 1 -211 -1
-363 -7 -363 -11 0 -18 62 -28 240 -10 166 -7 243 13 389 8 62 13 116 10 119
-8 8 -12 2 -27 -48 -12 -38 -21 -48 -56 -64 -24 -11 -43 -25 -43 -33 0 -13
-16 -17 -58 -13 -13 1 -29 -3 -36 -9 -7 -6 -31 -13 -53 -15 -61 -8 -94 -26
-88 -47 4 -11 -1 -22 -14 -28 -30 -17 -43 -13 -36 9 7 21 -2 24 -29 14 -9 -3
-14 -10 -11 -15 3 -4 -4 -13 -16 -20 -16 -8 -27 -8 -44 1 -19 10 -29 9 -57 -6
-18 -10 -44 -28 -58 -40 -14 -12 -41 -24 -61 -28 -19 -3 -51 -17 -69 -31 -19
-14 -44 -25 -57 -25 -34 0 -83 -28 -77 -43 3 -8 -3 -20 -12 -28 -14 -11 -18
-11 -29 4 -11 16 -18 15 -100 -13 -109 -37 -125 -38 -125 -7 0 13 -3 26 -6 30
-4 3 -8 37 -9 74 -2 37 -8 110 -14 162 -11 105 -6 126 37 142 36 14 158 35
317 54 71 9 131 18 134 20 2 3 -155 5 -350 5 -295 -1 -357 -3 -373 -15 -26
-19 -65 -19 -72 0 -5 13 -171 15 -1408 15 -1158 -1 -1396 -3 -1371 -14 17 -7
57 -16 91 -19 33 -4 68 -9 77 -13 27 -10 20 -31 -15 -44 -18 -7 -62 -26 -98
-43 -36 -16 -74 -32 -85 -37 -11 -4 -53 -22 -93 -40 -69 -30 -76 -32 -118 -20
-24 7 -47 17 -50 21 -6 10 28 86 48 109 7 8 34 34 60 58 l48 42 -530 0 -530 0
0 -880z m3878 844 c18 -39 3 -56 -95 -103 -48 -23 -95 -46 -103 -51 -16 -10
-65 -34 -90 -44 -8 -3 -23 -12 -33 -18 -16 -11 -21 -10 -37 10 -11 13 -17 28
-14 35 3 7 39 28 80 47 40 19 74 38 74 42 0 5 10 8 23 8 12 0 33 7 47 15 14 8
45 24 68 36 24 12 46 28 49 36 8 20 19 16 31 -13z m3387 -43 c3 -5 1 -12 -5
-16 -5 -3 -10 1 -10 9 0 18 6 21 15 7z m-567 -84 c10 -9 43 -26 75 -38 31 -12
74 -37 94 -55 l38 -34 -39 -35 c-22 -19 -60 -47 -84 -61 -43 -26 -46 -26 -121
-15 -42 7 -112 20 -156 29 l-80 16 -112 105 c-62 57 -113 108 -113 112 0 27
467 4 498 -24z m-2538 11 c0 -7 3 -30 6 -51 5 -30 4 -36 -8 -32 -11 4 -13 -3
-11 -32 4 -36 3 -37 -12 -18 -9 11 -20 27 -25 35 -7 12 -11 12 -21 3 -15 -15
-38 5 -41 37 -2 16 8 28 37 45 45 26 75 31 75 13z m1939 -36 c60 -41 164 -132
158 -139 -3 -2 -71 3 -152 12 -81 8 -151 15 -155 15 -17 0 -110 101 -110 120
0 6 71 23 140 33 39 6 60 -2 119 -41z m909 -4 c2 -9 -6 -22 -18 -28 -17 -9
-28 -7 -60 11 -22 13 -40 27 -40 31 0 5 26 8 57 6 45 -2 59 -7 61 -20z m-1668
-8 c0 -5 -4 -10 -10 -10 -5 0 -10 5 -10 10 0 6 5 10 10 10 6 0 10 -4 10 -10z
m429 -25 c41 -47 39 -57 -6 -51 -21 3 -61 8 -88 11 -95 12 -98 35 -9 60 69 19
69 19 103 -20z m1450 -6 c17 -6 31 -17 31 -24 0 -17 19 -23 99 -29 35 -3 66
-8 68 -10 3 -2 0 -13 -6 -24 -11 -20 -177 -92 -213 -92 -20 0 -108 46 -119 63
-6 9 -1 68 6 75 2 2 21 6 43 9 28 4 42 11 45 24 6 22 5 22 46 8z m-3719 -34
c0 -8 -7 -15 -15 -15 -8 0 -15 7 -15 15 0 8 7 15 15 15 8 0 15 -7 15 -15z
m1640 1 c0 -2 -7 -9 -15 -16 -12 -10 -15 -10 -15 4 0 9 7 16 15 16 8 0 15 -2
15 -4z m267 -18 c9 -14 31 -525 24 -572 l-4 -28 -60 7 c-34 3 -124 27 -202 52
-222 72 -260 87 -263 107 -3 12 35 55 116 134 114 112 179 197 170 224 -9 26
24 42 142 72 71 18 67 18 77 4z m-1228 -114 c11 -38 19 -91 20 -117 0 -46 -2
-49 -34 -63 -48 -20 -56 -18 -49 10 4 18 1 25 -15 29 -27 7 -27 21 1 46 18 18
20 24 10 46 -16 36 -15 48 8 75 11 13 20 32 20 44 0 37 20 2 39 -70z m1457 61
c46 -8 121 -18 166 -21 81 -7 84 -8 123 -48 109 -112 325 -354 325 -364 0 -4
-71 -16 -157 -25 -87 -10 -220 -33 -296 -52 -75 -19 -164 -37 -196 -41 -75 -8
-80 0 -80 127 0 52 -5 168 -10 258 -11 170 -7 199 27 186 8 -3 52 -12 98 -20z
m-466 -12 c0 -24 -50 -80 -136 -156 -55 -47 -126 -111 -159 -141 -33 -31 -63
-56 -66 -56 -4 0 -58 20 -121 44 -62 24 -137 51 -166 60 l-52 18 24 19 c32 25
163 75 366 138 91 28 183 57 205 65 45 15 105 20 105 9z m1827 -39 c8 -23 -10
-49 -33 -48 -10 1 -31 2 -46 2 -16 1 -28 8 -28 15 0 17 49 46 78 47 12 0 25
-7 29 -16z m-594 -75 c37 -40 79 -91 93 -114 l25 -43 -22 -37 c-12 -20 -28
-53 -34 -73 -11 -31 -19 -38 -52 -45 l-38 -8 -95 98 c-133 137 -260 281 -260
294 0 9 41 10 158 5 l157 -6 68 -71z m1126 63 c9 -10 33 -31 54 -46 20 -16 37
-32 37 -37 0 -12 -62 -11 -131 0 -30 5 -75 12 -101 16 -56 7 -61 18 -15 35 17
6 48 20 67 31 44 23 68 24 89 1z m-910 -59 l23 -15 -33 -34 c-18 -19 -35 -34
-38 -34 -8 0 -71 93 -71 104 0 13 92 -3 119 -21z m-3472 -9 c-17 -17 -170 -95
-175 -89 -9 9 11 24 65 49 32 14 65 30 73 36 17 10 47 13 37 4z m3759 -30 l80
-6 13 -150 c7 -82 10 -152 7 -155 -3 -3 -38 -9 -78 -14 -40 -5 -89 -11 -108
-13 -19 -3 -26 -3 -15 0 48 12 51 14 35 24 -8 6 -34 10 -58 10 -58 0 -75 11
-97 62 -11 24 -29 57 -41 73 -36 50 -38 69 -7 100 47 47 124 86 158 81 17 -3
66 -8 111 -12z m1650 -21 c-10 -10 -19 5 -10 18 6 11 8 11 12 0 2 -7 1 -15 -2
-18z m-1378 -7 c31 -16 200 -51 287 -61 33 -3 78 -11 100 -17 22 -6 72 -10
112 -9 65 2 72 0 78 -19 5 -15 1 -28 -9 -39 -16 -15 -21 -14 -66 12 -64 35
-74 34 -55 -3 19 -36 19 -40 0 -40 -8 0 -15 6 -15 13 0 7 -3 8 -8 2 -12 -18
-63 -36 -83 -30 -11 4 -19 2 -19 -4 0 -5 -30 -12 -67 -16 -38 -4 -117 -16
-178 -27 -60 -10 -118 -20 -129 -22 -10 -1 -24 -10 -31 -20 -11 -15 -13 -13
-19 16 -3 18 -8 88 -12 156 l-7 122 47 0 c26 0 59 -6 74 -14z m-3181 -76 l1
-56 -39 -12 c-21 -7 -52 -12 -68 -12 -16 0 -36 -7 -45 -15 -19 -19 -42 -19
-49 0 -5 12 -12 12 -39 3 -18 -6 -37 -17 -41 -25 -10 -17 -37 -17 -37 0 0 6
-12 0 -25 -16 -18 -21 -30 -26 -48 -22 -15 4 -30 1 -39 -8 -27 -28 -112 -60
-153 -59 -27 1 -35 -2 -25 -8 12 -7 11 -10 -5 -15 -33 -11 -50 -22 -50 -33 0
-16 -12 -24 -53 -39 -44 -15 -98 -17 -107 -3 -11 18 -25 10 -25 -15 0 -20 -5
-25 -25 -25 -33 0 -33 29 0 58 13 12 27 32 31 46 7 31 68 79 119 96 126 40
164 54 202 76 23 13 58 24 77 24 20 0 36 4 36 9 0 4 30 8 66 9 36 0 71 5 77
10 7 4 32 14 57 21 25 7 63 21 85 31 117 52 119 52 122 -20z m-1037 42 c0 -4
-8 -12 -19 -17 -10 -6 -31 -17 -47 -26 -35 -20 -84 -32 -84 -22 0 5 20 16 43
26 23 11 56 25 72 33 36 16 35 16 35 6z m1494 -21 c3 -5 -1 -14 -9 -21 -18
-15 -19 -30 -2 -30 21 0 290 -90 304 -102 19 -16 16 -30 -16 -68 l-29 -35
-153 75 c-165 81 -209 111 -209 141 0 31 99 66 114 40z m3369 -88 c-7 -2 -19
-2 -25 0 -7 3 -2 5 12 5 14 0 19 -2 13 -5z m-3605 -15 c-3 -7 -14 -14 -26 -16
-12 -2 -22 -7 -22 -12 0 -4 -9 -10 -20 -13 -33 -9 -22 11 18 32 44 24 55 26
50 9z m2392 -89 c0 -8 -11 -9 -31 -5 -17 3 -38 6 -45 6 -18 0 -18 22 2 68 l15
37 30 -48 c16 -26 29 -52 29 -58z m1805 0 c59 -39 104 -73 102 -76 -12 -12
-217 110 -225 135 -7 23 17 12 123 -59z m-605 46 c0 -8 -4 -15 -10 -15 -5 0
-7 7 -4 15 4 8 8 15 10 15 2 0 4 -7 4 -15z m70 -25 c0 -5 -2 -10 -4 -10 -3 0
-8 5 -11 10 -3 6 -1 10 4 10 6 0 11 -4 11 -10z m-78 -17 c23 -21 23 -30 -3
-43 -26 -14 -49 3 -49 36 0 29 25 32 52 7z m-3519 -84 c15 -41 46 -130 68
-199 23 -69 55 -158 71 -199 16 -40 26 -76 23 -79 -11 -11 -120 31 -135 52
-21 30 -44 92 -90 244 -48 158 -50 202 -15 238 14 14 31 24 38 21 6 -2 24 -37
40 -78z m661 46 c32 -9 68 -22 80 -30 11 -7 49 -20 84 -29 35 -9 103 -33 150
-55 48 -21 105 -43 127 -47 38 -9 41 -12 49 -55 9 -46 5 -81 -13 -109 -9 -12
-15 -13 -48 -1 -116 40 -229 85 -238 96 -5 6 -25 17 -43 23 -18 6 -53 25 -78
42 -25 17 -73 40 -107 51 -95 32 -119 49 -112 79 4 14 14 33 23 43 18 20 29
20 126 -8z m2966 -26 c30 -17 84 -47 120 -66 36 -20 75 -42 88 -50 12 -7 28
-11 34 -7 7 4 8 3 4 -4 -4 -7 -1 -12 6 -12 15 0 58 -63 58 -84 0 -8 -3 -17 -7
-19 -9 -5 -180 24 -320 54 -102 23 -100 20 -82 99 19 86 30 120 37 120 4 0 32
-14 62 -31z m-1558 -36 c10 -9 18 -23 18 -31 0 -10 4 -12 13 -5 31 25 277 54
277 34 0 -5 28 -12 63 -15 52 -6 114 -25 82 -26 -5 0 4 -9 21 -19 33 -20 88
-119 82 -148 -2 -12 -13 0 -34 37 -18 30 -41 63 -52 73 -46 42 -279 46 -385 7
-78 -28 -157 -39 -307 -43 -103 -2 -143 -7 -169 -20 -19 -9 -40 -17 -48 -17
-7 0 -13 -4 -13 -8 0 -9 -46 -35 -63 -36 -5 -1 -14 -9 -21 -18 -7 -10 -18 -18
-25 -18 -6 0 -11 -7 -11 -15 0 -9 -9 -15 -21 -15 -12 0 -34 -11 -50 -24 -15
-13 -32 -26 -36 -28 -4 -1 -34 -33 -65 -69 -56 -64 -76 -108 -43 -95 8 3 28 3
44 0 33 -7 46 -44 35 -102 l-7 -34 -56 6 c-31 4 -68 15 -83 26 l-27 20 -47
-73 c-26 -39 -51 -73 -56 -75 -4 -2 -8 -8 -8 -14 0 -6 -13 -29 -28 -52 -26
-39 -72 -129 -72 -142 0 -3 -13 -25 -30 -49 -16 -24 -30 -46 -30 -50 0 -3 -10
-16 -23 -28 -33 -32 -73 -95 -97 -152 -12 -27 -25 -59 -30 -70 -33 -78 -61
-161 -67 -200 -5 -39 -4 -45 11 -39 24 9 19 -8 -9 -35 -19 -18 -25 -20 -25 -7
0 9 -6 13 -13 10 -20 -7 -32 13 -57 96 -65 219 -95 316 -130 424 -44 132 -43
140 18 149 149 21 447 79 458 88 7 6 20 23 27 38 8 14 31 57 52 94 20 38 35
70 33 71 -1 2 -58 9 -124 15 -158 16 -316 52 -390 89 -68 35 -121 86 -159 156
-22 40 -26 58 -23 98 4 32 13 57 26 70 18 18 24 19 53 9 19 -6 45 -22 59 -35
14 -13 76 -39 145 -61 188 -59 459 -163 473 -182 6 -9 12 -25 12 -35 0 -10 5
-18 10 -18 6 0 10 4 10 9 0 5 27 38 60 73 38 41 57 68 53 78 -29 73 -33 94
-26 153 8 61 8 61 46 69 20 4 54 16 75 27 64 32 287 81 432 94 19 2 84 5 144
5 89 2 113 -1 128 -15z m634 -7 c-5 -21 -3 -23 20 -18 20 4 25 1 22 -9 -5 -16
-41 -24 -66 -14 -13 5 -14 8 -3 14 9 6 10 11 2 15 -19 12 -12 36 10 36 17 0
20 -4 15 -24z m-2461 -44 l90 -48 2 -50 c6 -121 46 -291 83 -352 25 -41 25
-42 -6 -42 -53 0 -104 22 -123 54 -28 45 -152 383 -160 439 -10 61 -3 61 114
-1z m2572 16 c-3 -8 -6 -5 -6 6 -1 11 2 17 5 13 3 -3 4 -12 1 -19z m-4152 -13
c14 -13 25 -28 25 -33 0 -11 -86 -54 -153 -77 -38 -13 -52 -14 -63 -5 -12 11
-10 18 11 53 27 47 87 87 128 87 16 0 38 -10 52 -25z m1202 -173 c25 -84 44
-155 41 -157 -5 -5 -237 48 -274 62 -22 8 -10 47 29 97 70 91 141 166 149 158
5 -5 29 -77 55 -160z m2438 118 c3 -5 1 -10 -4 -10 -6 0 -11 5 -11 10 0 6 2
10 4 10 3 0 8 -4 11 -10z m73 -8 c2 -7 -4 -15 -13 -18 -21 -8 -40 17 -22 28
15 10 30 5 35 -10z m-5848 -35 c0 -29 -7 -37 -26 -30 -14 5 -19 35 -7 46 14
15 33 6 33 -16z m1813 -4 c18 -17 23 -68 7 -78 -15 -9 -70 24 -82 50 -16 36
-4 59 30 50 15 -3 35 -14 45 -22z m317 -27 c0 -15 -27 -25 -48 -18 -10 3 -8 8
5 18 23 17 43 18 43 0z m4215 -100 c6 -78 -11 -32 -20 53 -4 44 -3 51 5 32 6
-14 13 -52 15 -85z m-871 2 c129 -79 144 -95 137 -140 -2 -15 6 -18 56 -18 74
0 103 -16 47 -25 -68 -11 -70 -13 -23 -14 62 -1 153 -47 203 -101 102 -111 84
-304 -47 -480 -51 -69 -50 -67 -122 -117 -157 -109 -338 -116 -431 -17 -18 19
-37 34 -43 34 -5 0 -12 8 -15 18 -3 9 -20 26 -36 37 -17 11 -33 30 -36 42 -3
12 -19 33 -35 47 -17 15 -26 32 -23 40 3 9 -3 28 -14 43 -31 44 -60 110 -67
153 -6 35 -4 40 12 40 24 0 155 -129 164 -161 l7 -24 1 24 c2 38 77 185 126
245 25 31 42 56 38 56 -4 0 -31 -23 -60 -52 -29 -29 -53 -47 -53 -41 0 7 4 14
9 17 15 9 20 45 6 40 -12 -5 -25 24 -25 59 0 20 -47 66 -67 67 -19 0 -16 23 5
46 11 11 18 34 18 55 0 62 62 134 128 150 60 14 89 9 140 -23z m-3724 7 c0 -8
-9 -19 -20 -25 -17 -9 -20 -8 -20 8 0 10 3 22 7 25 12 12 33 7 33 -8z m530
-19 c0 -24 -22 -51 -33 -39 -4 3 -13 1 -20 -6 -12 -9 -13 -6 -9 16 8 49 62 74
62 29z m-102 -50 c2 -10 -1 -23 -7 -29 -15 -15 -46 16 -37 38 8 21 40 15 44
-9z m-78 -31 c0 -21 -30 -31 -40 -14 -11 17 -3 29 21 29 10 0 19 -7 19 -15z
m1024 -50 c39 -19 114 -44 166 -55 123 -26 136 -34 157 -89 10 -25 31 -75 48
-111 39 -81 60 -148 51 -157 -13 -14 -271 17 -361 43 -108 31 -220 86 -236
116 -30 56 45 288 94 288 5 0 41 -16 81 -35z m461 -144 c28 -12 60 -26 72 -31
29 -12 51 -47 81 -128 38 -104 37 -106 -30 -110 -55 -3 -67 -9 -50 -26 4 -4
12 -24 17 -44 l11 -37 63 0 64 0 14 -40 c8 -22 20 -62 28 -90 8 -27 26 -88 40
-135 38 -122 94 -317 110 -375 19 -73 32 -102 51 -113 14 -8 2 -24 -75 -103
-111 -114 -115 -113 -125 48 -16 243 -68 510 -120 610 -9 18 -15 36 -14 40 1
4 -3 18 -10 31 -7 12 -10 22 -6 22 3 0 2 6 -3 13 -5 6 -18 39 -28 72 -9 33
-24 76 -32 95 -8 19 -18 44 -23 55 -4 11 -12 31 -18 45 -26 63 -41 108 -36
113 3 2 -4 20 -15 38 -23 41 -37 83 -25 77 5 -2 32 -14 59 -27z m-2015 -78
c-11 -17 -11 -17 -6 0 3 10 6 24 7 30 0 9 2 9 5 0 3 -7 0 -20 -6 -30z m2340
-34 c36 -11 126 -36 200 -55 134 -35 167 -48 139 -59 -28 -10 -275 -31 -322
-27 -46 4 -49 6 -67 47 -30 69 -40 115 -27 115 7 0 41 -10 77 -21z m-1975 -9
c0 -8 -10 -16 -22 -18 -22 -3 -32 16 -16 32 12 11 38 2 38 -14z m-341 -184
c15 -15 17 -22 7 -37 -6 -10 -11 -26 -11 -34 0 -8 -7 -15 -16 -15 -14 0 -16 7
-11 39 6 44 0 56 -19 40 -23 -19 -35 0 -17 26 19 24 23 23 67 -19z m4799 -36
c-4 -5 -20 -12 -35 -15 -22 -6 -28 -4 -28 8 0 10 11 17 28 19 32 4 47 -1 35
-12z m-4763 -24 c0 -3 -4 -8 -10 -11 -5 -3 -10 -1 -10 4 0 6 5 11 10 11 6 0
10 -2 10 -4z m250 -11 c0 -8 -7 -15 -15 -15 -16 0 -20 12 -8 23 11 12 23 8 23
-8z m2591 -61 c-5 -21 -23 -77 -40 -124 -20 -55 -27 -87 -20 -91 16 -9 -34
-99 -54 -99 -7 0 -1 83 8 138 4 23 11 42 14 42 4 0 15 25 26 55 10 31 24 60
32 66 7 6 13 18 13 25 0 8 5 14 10 14 6 0 10 8 11 18 0 9 3 12 5 6 3 -6 0 -29
-5 -50z m-2909 -18 c2 -8 0 -14 -3 -13 -3 1 -13 -4 -22 -12 -15 -12 -17 -9
-17 27 0 62 29 61 42 -2z m85 -33 c4 -11 -46 -68 -53 -60 -3 3 -7 20 -10 38
-6 33 -5 34 27 34 18 0 34 -5 36 -12z m27 -101 c3 -20 15 -54 26 -74 12 -22
20 -57 20 -83 0 -31 5 -47 15 -51 8 -4 12 -10 9 -15 -13 -21 8 -48 38 -51 40
-4 47 -24 15 -39 -15 -7 -23 -17 -20 -25 3 -9 -2 -14 -12 -14 -11 0 -15 5 -12
14 3 8 -1 17 -10 20 -13 5 -13 9 -2 24 7 9 9 14 5 10 -5 -5 -17 6 -27 22 -11
17 -24 30 -29 30 -6 0 -8 4 -5 10 3 6 -1 7 -10 4 -14 -6 -16 1 -14 42 3 64 -9
117 -26 111 -12 -5 -50 61 -40 71 3 3 17 -5 31 -19 l26 -24 -8 50 c-6 44 -5
48 8 37 9 -7 18 -29 22 -50z m3476 24 c0 -15 -36 -36 -62 -36 -56 0 -16 36 45
39 9 1 17 -1 17 -3z m-810 -10 c0 -3 -4 -8 -10 -11 -5 -3 -10 -1 -10 4 0 6 5
11 10 11 6 0 10 -2 10 -4z m-2620 -52 c0 -16 -16 -19 -25 -4 -8 13 4 32 16 25
5 -4 9 -13 9 -21z m-120 -15 c0 -5 -4 -9 -10 -9 -5 0 -10 7 -10 16 0 8 5 12
10 9 6 -3 10 -10 10 -16z m46 -65 c3 -19 1 -24 -5 -15 -7 11 -9 11 -13 0 -5
-16 -28 -3 -28 18 0 9 6 13 15 9 10 -3 15 1 15 11 0 25 10 9 16 -23z m2694
-84 c0 -5 -5 -10 -11 -10 -5 0 -7 5 -4 10 3 6 8 10 11 10 2 0 4 -4 4 -10z
m-2640 -71 c0 -11 -4 -17 -10 -14 -5 3 -10 15 -10 26 0 11 5 17 10 14 6 -3 10
-15 10 -26z m2558 -44 c-12 -14 -24 -23 -26 -20 -8 8 28 56 38 50 5 -3 0 -17
-12 -30z m-2297 -51 c8 -9 8 -14 1 -14 -20 0 -62 19 -62 28 0 13 47 2 61 -14z
m-701 -54 c0 -5 -5 -10 -11 -10 -5 0 -7 5 -4 10 3 6 8 10 11 10 2 0 4 -4 4
-10z m275 -90 c0 -14 6 -31 13 -39 7 -7 10 -21 7 -31 -3 -10 -1 -21 5 -25 7
-4 9 -18 6 -31 -4 -13 -3 -24 2 -24 5 0 9 -27 9 -60 1 -33 -1 -60 -3 -60 -2 0
-10 21 -17 48 -16 53 -12 53 -142 26 -38 -7 -73 -10 -77 -6 -4 4 -10 25 -13
47 -3 22 -8 55 -11 74 -6 46 -9 48 -44 43 -35 -5 -37 -16 -15 -107 19 -76 19
-75 -5 -75 -16 0 -22 13 -36 80 -10 44 -21 80 -26 80 -7 0 -12 29 -5 30 348
68 352 68 352 30z m-1388 -127 c10 -21 10 -28 0 -35 -24 -15 -33 -8 -34 27 -1
42 17 46 34 8z m1040 -55 c-3 -8 -6 -5 -6 6 -1 11 2 17 5 13 3 -3 4 -12 1 -19z
m-1017 -15 c0 -10 3 -42 7 -71 5 -46 4 -52 -11 -46 -9 3 -16 12 -16 19 0 7 -7
15 -15 19 -15 5 -22 76 -8 89 13 14 43 7 43 -10z m110 -8 c0 -8 -4 -15 -10
-15 -5 0 -10 7 -10 15 0 8 5 15 10 15 6 0 10 -7 10 -15z m-699 -28 c-13 -13
-26 -3 -16 12 3 6 11 8 17 5 6 -4 6 -10 -1 -17z m4304 -7 c-3 -5 -10 -10 -16
-10 -5 0 -9 5 -9 10 0 6 7 10 16 10 8 0 12 -4 9 -10z m165 -14 c0 -12 -4 -36
-9 -52 -9 -28 -42 -193 -62 -304 -6 -30 -23 -112 -39 -181 -17 -70 -30 -137
-30 -150 0 -13 -4 -30 -9 -38 -13 -20 -22 2 -20 51 1 24 -1 157 -5 297 l-6
253 72 74 c74 77 108 93 108 50z m-4590 -22 c0 -8 -7 -14 -15 -14 -10 0 -15
10 -15 26 0 22 2 25 15 14 8 -7 15 -19 15 -26z m443 15 c7 -26 -9 -72 -22 -64
-8 4 -8 53 -2 83 3 11 20 -2 24 -19z m380 7 c3 -8 -2 -16 -14 -19 -15 -4 -18
-2 -10 7 6 7 8 16 4 19 -3 4 -2 7 4 7 6 0 13 -6 16 -14z m927 -31 c0 -17 -2
-17 -10 -5 -5 8 -10 24 -10 35 0 17 2 17 10 5 5 -8 10 -24 10 -35z m-1610 25
c0 -5 -5 -10 -11 -10 -5 0 -7 5 -4 10 3 6 8 10 11 10 2 0 4 -4 4 -10z m-35
-11 c9 -14 7 -15 -37 -22 -28 -4 -38 -2 -38 8 0 23 63 35 75 14z m109 -10 c-2
-4 3 -9 13 -11 15 -3 15 -4 0 -19 -15 -15 -12 -17 34 -21 58 -6 67 -12 49 -33
-9 -10 -9 -15 -1 -15 7 0 9 -9 5 -25 -4 -17 -2 -25 7 -25 10 0 9 -4 -3 -16
-15 -16 -18 -16 -33 0 -19 19 -51 21 -58 4 -4 -10 -7 -10 -18 0 -9 9 -10 12
-1 12 7 0 12 5 12 11 0 8 -5 7 -15 -1 -9 -7 -19 -10 -23 -6 -4 4 2 14 12 22
17 12 18 14 3 14 -19 0 -23 15 -6 26 6 3 15 1 19 -6 9 -14 80 -5 80 10 0 16
-51 24 -60 10 -6 -9 -12 -9 -29 -1 -25 14 -27 27 -5 39 15 8 15 10 -1 15 -19
8 -13 24 9 24 8 0 13 -4 10 -8z m1627 -1 c1 -7 1 -19 0 -25 -1 -7 3 -22 9 -33
6 -11 7 -20 2 -20 -5 0 -24 -3 -42 -7 -24 -4 -31 -3 -26 5 4 7 2 12 -3 12 -6
0 -11 4 -11 9 0 5 9 7 20 4 11 -3 20 0 20 6 0 6 -4 11 -10 11 -5 0 -10 7 -10
15 0 8 -8 15 -17 16 -15 0 -15 2 2 9 30 13 65 12 66 -2z m-1327 -13 c3 -9 0
-15 -9 -15 -16 0 -27 14 -18 24 10 10 21 7 27 -9z m-586 -14 c4 -11 -2 -13
-26 -8 -17 4 -34 2 -37 -3 -3 -6 -16 -10 -28 -10 -22 1 -22 1 2 21 28 23 82
23 89 0z m719 -3 c-3 -8 -6 -5 -6 6 -1 11 2 17 5 13 3 -3 4 -12 1 -19z m183 8
c0 -3 -4 -8 -10 -11 -5 -3 -10 -1 -10 4 0 6 5 11 10 11 6 0 10 -2 10 -4z
m-250 -21 c0 -9 -9 -15 -25 -15 -16 0 -25 6 -25 15 0 9 9 15 25 15 16 0 25 -6
25 -15z m1180 5 c0 -5 -4 -10 -10 -10 -5 0 -10 5 -10 10 0 6 5 10 10 10 6 0
10 -4 10 -10z m-1690 -10 c0 -5 -4 -10 -10 -10 -5 0 -10 5 -10 10 0 6 5 10 10
10 6 0 10 -4 10 -10z m-260 -10 c0 -5 -14 -10 -31 -10 -17 0 -28 4 -24 10 3 6
17 10 31 10 13 0 24 -4 24 -10z m950 -20 c0 -5 -7 -10 -15 -10 -8 0 -15 5 -15
10 0 6 7 10 15 10 8 0 15 -4 15 -10z m70 -5 c0 -8 -4 -15 -10 -15 -5 0 -7 7
-4 15 4 8 8 15 10 15 2 0 4 -7 4 -15z m-670 -15 c0 -11 -7 -20 -15 -20 -8 0
-15 -4 -15 -10 0 -5 7 -10 16 -10 20 0 14 -34 -7 -38 -9 -2 -27 8 -40 22 -13
14 -30 26 -36 26 -7 0 -13 6 -13 14 0 9 17 19 43 24 62 14 67 14 67 -8z m4552
-127 c34 -132 58 -277 58 -361 0 -73 -3 -75 -113 -86 -56 -5 -68 -4 -73 9 -15
37 48 518 72 556 12 21 27 -10 56 -118z m-4691 110 c8 -73 3 -79 -37 -58 -16
8 -23 15 -16 15 7 0 18 11 24 25 11 24 27 34 29 18z m-176 -28 c0 -21 -31 -33
-46 -18 -5 5 -7 17 -3 27 9 24 49 17 49 -9z m915 -22 c0 -45 -5 -40 -13 10 -3
22 -2 35 4 32 5 -4 9 -22 9 -42z m78 25 c-2 -6 -10 -14 -16 -16 -7 -2 -10 2
-6 12 7 18 28 22 22 4z m-925 -5 c-23 -9 -14 -25 10 -18 21 7 20 5 -5 -19 -34
-32 -35 -32 -36 2 0 34 5 42 26 41 11 0 12 -3 5 -6z m1957 -7 c0 -11 -19 -15
-25 -6 -3 5 1 10 9 10 9 0 16 -2 16 -4z m-1800 -10 c0 -3 -4 -8 -10 -11 -5 -3
-10 -1 -10 4 0 6 5 11 10 11 6 0 10 -2 10 -4z m135 -16 c-4 -6 10 -8 36 -6 66
7 86 -5 81 -48 -4 -37 -15 -46 -29 -22 -4 7 -15 16 -23 19 -12 4 -11 6 3 6 10
1 17 9 17 20 0 21 -23 20 -67 -2 -25 -11 -32 -33 -8 -24 23 9 26 -8 4 -23 -25
-19 -24 -30 1 -23 16 4 19 2 14 -11 -7 -19 -25 -21 -42 -4 -18 18 -15 75 6 87
16 10 16 10 0 11 -10 0 -18 7 -18 15 0 8 7 15 16 15 8 0 12 -4 9 -10z m635
-15 c0 -8 -4 -15 -9 -15 -5 0 -11 7 -15 15 -3 9 0 15 9 15 8 0 15 -7 15 -15z
m877 9 c-3 -3 -12 -4 -19 -1 -8 3 -5 6 6 6 11 1 17 -2 13 -5z m113 -4 c0 -5
-4 -10 -10 -10 -5 0 -10 5 -10 10 0 6 5 10 10 10 6 0 10 -4 10 -10z m-1187
-43 c9 -23 17 -45 17 -48 0 -3 -33 -12 -72 -19 -40 -7 -75 -15 -77 -16 -6 -5
22 -29 42 -37 20 -7 23 -27 5 -27 -22 1 -58 37 -58 58 0 11 8 23 18 25 9 3 2
5 -15 6 -31 1 -33 3 -33 36 0 21 5 35 13 36 6 0 39 6 72 14 33 7 62 14 65 14
3 1 13 -18 23 -42z m1044 11 c-3 -8 -6 -5 -6 6 -1 11 2 17 5 13 3 -3 4 -12 1
-19z m-1541 -32 c-1 -12 -6 -27 -10 -34 -4 -7 -4 -16 -1 -22 3 -5 -1 -10 -9
-10 -17 0 -21 43 -10 88 5 17 10 20 19 12 8 -6 12 -21 11 -34z m1478 24 c28
-10 35 -30 12 -30 -17 0 -66 39 -49 40 6 0 23 -4 37 -10z m-731 -15 c8 -19
-13 -31 -24 -14 -13 20 -11 29 5 29 8 0 16 -7 19 -15z m517 3 c0 -10 -9 -9
-35 2 -17 8 -16 8 8 7 15 -1 27 -5 27 -9z m-83 -4 c-3 -3 -12 -4 -19 -1 -8 3
-5 6 6 6 11 1 17 -2 13 -5z m-953 -19 c3 -8 1 -15 -4 -15 -6 0 -10 7 -10 15 0
8 2 15 4 15 2 0 6 -7 10 -15z m1016 6 c0 -5 -16 -12 -35 -15 -38 -7 -48 -26
-14 -26 11 0 17 -4 14 -10 -11 -17 -35 -11 -61 15 -14 14 -29 25 -33 25 -13 0
-61 -48 -61 -60 0 -6 -12 -10 -27 -8 -34 4 -46 38 -14 38 12 0 38 9 58 20 27
14 47 18 78 13 24 -3 51 -1 61 6 23 13 34 14 34 2z m80 -6 c0 -8 -4 -15 -9
-15 -5 0 -14 7 -21 15 -10 13 -9 15 9 15 12 0 21 -6 21 -15z m30 -5 c0 -5 -5
-10 -11 -10 -5 0 -7 5 -4 10 3 6 8 10 11 10 2 0 4 -4 4 -10z m-1175 -21 c3 -4
-5 -13 -17 -20 l-22 -12 24 -9 c24 -9 24 -10 6 -23 -16 -12 -21 -11 -40 8 -22
22 -22 22 -3 27 22 6 36 30 18 30 -6 0 -11 4 -11 9 0 11 38 2 45 -10z m795 -3
c0 -3 -4 -8 -10 -11 -5 -3 -10 -1 -10 4 0 6 5 11 10 11 6 0 10 -2 10 -4z m-42
-22 c29 -29 8 -54 -48 -54 -33 0 -62 27 -36 35 53 17 51 16 36 25 -11 7 -8 9
10 7 14 -1 31 -7 38 -13z m377 6 c3 -5 1 -10 -4 -10 -6 0 -11 5 -11 10 0 6 2
10 4 10 3 0 8 -4 11 -10z m-1255 -10 c0 -5 10 -10 23 -10 l22 -1 -22 -18 c-32
-27 -29 -34 15 -26 64 10 120 -23 63 -38 -13 -3 -18 -1 -15 8 7 17 -33 30 -50
16 -16 -13 -68 0 -58 15 4 6 16 16 27 22 19 11 19 11 -2 12 -14 0 -23 6 -23
15 0 8 5 15 10 15 6 0 10 -4 10 -10z m7690 6 c0 -11 -19 -15 -25 -6 -3 5 1 10
9 10 9 0 16 -2 16 -4z m-6938 -18 c-7 -7 -12 -20 -12 -29 0 -9 -7 -19 -15 -23
-18 -7 -19 2 -2 37 6 15 19 27 27 27 11 0 11 -3 2 -12z m-793 -35 c2 -2 -8 -3
-22 -3 -20 0 -25 4 -21 15 5 13 9 13 23 3 9 -7 18 -14 20 -15z m731 -26 c10
-3 7 -6 -8 -6 -28 -1 -59 25 -39 32 6 3 17 -1 22 -8 6 -6 17 -14 25 -18z m130
-8 c0 -4 -7 -6 -15 -3 -8 4 -15 10 -15 15 0 4 7 6 15 3 8 -4 15 -10 15 -15z
m-353 5 c-3 -3 -12 -4 -19 -1 -8 3 -5 6 6 6 11 1 17 -2 13 -5z m-527 -30 c0
-18 -27 -18 -46 0 -20 21 -18 23 16 18 17 -2 30 -10 30 -18z m65 16 c-3 -6 4
-10 17 -11 22 0 22 -1 3 -9 -14 -6 -15 -9 -5 -10 12 0 11 -3 -2 -11 -10 -5
-18 -15 -18 -20 0 -6 5 -7 11 -3 7 4 10 1 7 -7 -7 -22 -35 -22 -41 1 -3 13 0
20 9 20 19 0 18 16 -2 24 -13 5 -14 9 -4 21 14 17 35 21 25 5z m510 -1 c12
-19 -5 -23 -22 -6 -16 16 -16 17 -1 17 9 0 20 -5 23 -11z m50 -9 c-3 -5 -13
-10 -21 -10 -8 0 -12 5 -9 10 3 6 13 10 21 10 8 0 12 -4 9 -10z m-445 -25 c-1
-5 -10 -13 -21 -17 -13 -5 -18 -4 -13 3 4 6 0 15 -7 20 -10 7 -6 9 14 7 15 -2
27 -7 27 -13z m248 3 c-3 -7 -11 -13 -18 -13 -7 0 -15 6 -17 13 -3 7 4 12 17
12 13 0 20 -5 18 -12z m-738 -16 c0 -5 -3 -12 -7 -16 -4 -4 -6 -22 -5 -41 3
-27 -1 -35 -19 -40 -13 -5 -24 -2 -30 6 -9 15 0 72 13 77 4 2 6 8 2 13 -3 5 6
9 20 9 14 0 26 -4 26 -8z m147 -14 c-3 -8 -6 -5 -6 6 -1 11 2 17 5 13 3 -3 4
-12 1 -19z m163 -14 c0 -20 -24 -17 -43 4 -16 18 -15 18 13 14 17 -2 30 -10
30 -18z m271 11 c1 -17 -18 -17 -25 0 -4 11 -1 15 10 13 8 -2 15 -7 15 -13z
m7639 -5 c0 -5 -7 -7 -15 -4 -8 4 -15 8 -15 10 0 2 7 4 15 4 8 0 15 -4 15 -10z
m-7710 -10 c0 -5 -5 -10 -11 -10 -5 0 -7 5 -4 10 3 6 8 10 11 10 2 0 4 -4 4
-10z m-70 -15 c0 -8 -9 -15 -20 -15 -22 0 -27 15 -7 23 21 9 27 7 27 -8z
m-280 -15 c12 -8 11 -10 -7 -10 -13 0 -23 5 -23 10 0 13 11 13 30 0z m8245 -5
c0 -5 -15 -11 -32 -13 -32 -3 -45 11 -20 22 19 8 52 2 52 -9z m-8131 -21 c4
-10 1 -14 -6 -12 -15 5 -23 28 -10 28 5 0 13 -7 16 -16z m8001 -4 c3 -5 -1
-10 -10 -10 -9 0 -13 5 -10 10 3 6 8 10 10 10 2 0 7 -4 10 -10z m-8075 -14 c0
-17 -89 -31 -104 -16 -16 16 12 30 62 30 29 0 42 -4 42 -14z m-147 -25 c6 -26
-23 -36 -93 -32 -27 1 -25 20 3 30 15 7 25 5 33 -5 15 -19 21 -18 27 6 7 25
23 26 30 1z m2607 4 c0 -8 -4 -15 -10 -15 -5 0 -10 7 -10 15 0 8 5 15 10 15 6
0 10 -7 10 -15z m3330 5 c-20 -13 -33 -13 -25 0 3 6 14 10 23 10 15 0 15 -2 2
-10z m-43 -6 c-3 -3 -12 -4 -19 -1 -8 3 -5 6 6 6 11 1 17 -2 13 -5z m-94 -21
c-7 -2 -19 -2 -25 0 -7 3 -2 5 12 5 14 0 19 -2 13 -5z m2017 -388 c7 -8 18
-15 26 -15 20 0 28 -21 13 -31 -28 -17 -149 -1 -149 21 0 10 55 38 76 39 12 1
27 -6 34 -14z m-2851 -280 c1 -110 -20 -285 -43 -355 -27 -88 -70 -165 -91
-165 -17 0 -21 10 -28 63 -10 69 -24 83 -100 97 -20 4 -40 11 -43 16 -15 24
-54 217 -54 265 0 48 4 58 30 84 35 34 83 60 155 84 28 9 73 27 100 41 l50 24
12 -27 c7 -15 12 -71 12 -127z m-3942 -265 c-1 -11 -7 -20 -14 -20 -7 0 -13 2
-13 4 0 2 -3 11 -6 20 -4 11 0 16 14 16 15 0 20 -6 19 -20z m1640 -30 c-3 -11
-1 -20 5 -20 6 0 8 -7 4 -15 -3 -8 -2 -15 2 -16 4 -1 24 -3 46 -5 46 -4 51 -7
42 -31 -7 -17 -8 -17 -22 1 -8 11 -14 15 -14 9 0 -14 25 -34 33 -26 4 3 7 -6
7 -20 0 -17 5 -27 15 -27 8 0 15 -7 15 -15 0 -10 -10 -15 -32 -15 -27 0 -33
-4 -34 -22 -1 -13 -4 -33 -7 -46 -9 -34 28 -122 50 -122 8 0 11 -4 8 -10 -3
-5 1 -10 10 -10 21 0 32 -30 14 -41 -10 -6 -4 -12 25 -24 21 -9 36 -19 33 -22
-3 -3 3 -22 14 -44 12 -21 19 -46 17 -56 -2 -13 -8 -8 -21 19 -12 25 -22 35
-32 32 -8 -4 -15 -2 -15 4 0 16 -30 23 -51 12 -23 -13 -25 -30 -4 -30 8 0 15
-6 15 -12 0 -10 2 -10 8 0 5 7 19 11 33 10 18 -2 29 -14 43 -45 10 -24 22 -43
27 -43 5 0 9 -7 9 -15 0 -9 7 -27 16 -40 9 -14 14 -34 11 -45 -3 -13 0 -20 9
-20 7 0 11 -6 8 -14 -4 -11 7 -18 38 -27 51 -16 58 -22 82 -76 12 -28 23 -40
33 -36 16 6 13 39 -4 36 -6 -1 -9 6 -6 17 3 11 1 26 -5 33 -5 6 -13 27 -17 44
-6 30 -4 34 21 44 25 9 31 7 47 -15 18 -25 57 -36 57 -17 0 5 6 9 13 8 31 -1
48 4 42 13 -3 5 5 12 19 16 17 4 27 15 31 34 3 16 16 32 31 39 31 14 77 15 69
1 -3 -5 -1 -10 5 -10 6 0 9 -4 5 -9 -3 -6 3 -15 14 -20 14 -8 20 -7 25 4 3 8
12 15 21 15 8 0 15 4 15 9 0 5 10 7 21 4 18 -5 20 -3 14 16 -5 18 -3 22 12 21
10 -1 27 -2 37 -1 18 1 18 2 1 21 -14 16 -15 20 -4 20 43 0 51 -51 12 -68 -24
-10 -24 -10 -3 -4 14 3 37 6 53 6 15 -1 27 3 27 7 0 5 -4 9 -9 9 -13 0 -6 67
9 85 8 10 9 15 1 15 -20 0 -12 20 12 30 18 7 19 9 3 9 -13 1 -17 6 -13 21 3
11 1 20 -5 20 -5 0 -7 4 -4 9 3 5 0 11 -7 14 -19 7 -7 103 12 99 9 -2 11 3 6
15 -4 10 -9 27 -12 38 -3 11 -10 30 -16 43 -8 18 -8 28 2 45 8 12 10 19 6 15
-10 -9 -33 32 -28 48 2 6 18 10 36 9 17 -1 39 2 48 8 19 12 37 -1 57 -40 20
-37 15 -51 -18 -47 -16 2 -30 0 -30 -6 0 -5 -9 -12 -21 -15 -43 -14 -11 -14
41 0 60 16 74 13 44 -10 -14 -11 -15 -14 -2 -9 12 4 17 -3 23 -35 11 -65 -10
-81 -42 -31 l-19 30 2 -65 c2 -35 5 -68 8 -73 3 -5 6 -30 7 -55 2 -26 9 -53
16 -59 7 -6 13 -17 13 -25 0 -7 7 -16 15 -19 8 -4 15 -18 15 -34 0 -15 7 -33
15 -40 8 -7 15 -23 15 -36 0 -17 4 -22 15 -18 19 8 19 5 -1 -42 -11 -26 -12
-35 -3 -27 10 10 16 9 31 -4 10 -9 18 -24 18 -35 0 -10 7 -18 15 -18 8 0 15
-7 15 -16 0 -10 6 -14 14 -11 7 3 18 1 24 -5 8 -8 10 -2 6 23 -7 39 4 53 48
64 34 9 48 -16 23 -41 -9 -9 -13 -19 -10 -22 3 -3 11 0 17 6 22 22 39 14 32
-13 l-6 -26 33 20 c19 12 40 24 48 28 20 9 67 -20 63 -40 -1 -9 5 -28 13 -41
9 -14 14 -33 11 -44 -3 -10 0 -27 8 -37 19 -26 9 -47 -18 -40 -12 4 -16 3 -10
-2 6 -4 14 -21 18 -36 6 -25 9 -27 23 -16 13 11 18 10 34 -10 11 -13 19 -33
19 -44 0 -20 -1 -20 -26 3 -21 21 -27 22 -34 10 -14 -23 -12 -31 10 -37 11 -3
20 -11 20 -18 0 -6 9 -20 20 -30 16 -14 23 -16 32 -7 15 15 38 15 38 0 0 -6 7
-20 17 -30 9 -10 14 -20 12 -22 -2 -2 -32 -6 -66 -9 -59 -5 -78 2 -52 19 8 5
6 10 -5 16 -9 5 -21 6 -26 3 -6 -3 -10 -2 -10 3 0 5 -15 15 -32 22 -18 6 -41
16 -50 21 -22 11 -66 -11 -60 -31 12 -46 149 -334 387 -814 14 -27 23 -51 21
-54 -3 -2 -22 31 -43 75 -22 43 -57 112 -79 153 -23 41 -108 205 -190 365 -82
159 -150 282 -152 273 -2 -9 -28 -25 -63 -37 -44 -17 -65 -31 -84 -59 -20 -29
-39 -41 -92 -60 -38 -12 -89 -28 -115 -34 -48 -11 -69 -29 -24 -21 13 3 27 0
30 -6 5 -7 -4 -11 -23 -11 -28 0 -31 -3 -31 -31 0 -26 -3 -30 -22 -27 -18 2
-23 -2 -22 -19 0 -13 -3 -23 -7 -23 -11 0 -69 73 -69 87 0 17 0 17 -59 -10
-37 -18 -47 -27 -39 -35 8 -8 7 -13 -5 -18 -9 -3 -17 -16 -17 -27 0 -16 -3
-18 -12 -9 -7 7 -22 12 -34 12 -13 0 -24 7 -26 16 -2 11 -16 18 -45 20 -37 3
-41 2 -36 -16 3 -11 10 -20 17 -19 26 3 35 -3 45 -33 14 -40 3 -52 -39 -43
-21 5 -34 15 -41 33 -5 15 -14 35 -19 45 -6 10 -8 26 -5 36 4 13 -4 21 -30 31
-41 16 -43 23 -13 44 28 20 62 20 82 1 8 -8 32 -15 55 -15 34 0 43 -5 56 -27
l15 -28 -2 25 c-2 20 -12 28 -51 41 -26 9 -53 21 -59 27 -7 7 -19 12 -28 12
-10 0 -28 9 -41 21 l-24 21 -3 -26 c-3 -22 -9 -26 -35 -27 -18 -1 -41 -2 -52
-3 -11 -1 -20 -6 -20 -13 0 -20 -14 -27 -21 -9 -3 9 -10 16 -15 16 -18 0 16
-39 38 -45 18 -4 23 -13 24 -38 1 -17 1 -35 0 -39 0 -5 5 -8 12 -8 20 0 78
-30 110 -57 16 -12 39 -26 53 -29 27 -7 32 -31 9 -41 -14 -5 -49 6 -212 63
-24 9 -45 24 -48 34 -3 11 -18 25 -33 33 -18 8 -27 20 -26 36 1 21 -3 22 -50
19 l-51 -3 -1 36 c-2 56 -9 67 -38 62 -14 -3 -26 -1 -26 4 0 5 -10 9 -22 9
-13 -1 -23 4 -23 11 0 7 -6 18 -14 25 -10 10 -12 10 -7 1 4 -7 2 -13 -4 -13
-6 0 -8 -10 -4 -25 8 -33 -23 -35 -36 -2 -8 21 -15 10 -11 -19 2 -20 -29 -25
-36 -6 -9 24 -25 33 -40 21 -21 -18 -48 6 -49 43 0 18 -4 48 -9 66 -6 26 -5
32 9 32 9 0 16 -7 16 -15 0 -21 32 -85 43 -85 5 0 6 8 2 18 -13 31 -18 62 -9
62 5 0 21 -14 37 -32 23 -29 29 -31 40 -18 6 8 31 16 53 17 34 2 43 -1 47 -16
2 -11 14 -24 25 -30 18 -10 20 -8 18 14 -2 13 -9 32 -16 40 -11 13 -9 20 16
46 16 17 44 37 62 44 37 16 43 38 9 33 -13 -1 -30 4 -39 12 -14 14 -15 17 0
41 9 17 12 34 7 45 -7 17 -8 16 -14 -6 -5 -18 -15 -26 -34 -28 -17 -2 -27 2
-28 10 -3 30 -19 99 -26 111 -3 4 -10 4 -16 -1 -12 -9 -96 -3 -164 12 -21 5
-33 4 -33 -3 0 -21 42 -121 51 -121 5 0 9 -7 9 -15 0 -21 -17 -19 -30 5 -22
41 -28 18 -8 -30 16 -39 18 -54 10 -62 -9 -9 -12 -8 -12 5 0 9 -6 31 -14 49
-8 18 -22 52 -32 76 -29 71 -25 41 6 -46 25 -71 27 -84 14 -89 -8 -3 -16 -4
-18 -2 -1 2 -25 63 -51 136 -27 73 -51 130 -53 128 -2 -2 12 -48 31 -102 60
-168 59 -176 -10 -151 -35 13 -43 32 -17 42 16 6 11 45 -9 57 -5 4 -7 11 -3
17 3 6 2 13 -3 16 -5 3 -12 23 -15 43 -11 60 -16 73 -32 73 -24 0 -16 30 9 31
15 1 11 4 -12 9 -24 6 -41 4 -56 -6 -13 -9 -58 -16 -116 -18 -57 -3 -135 -15
-197 -31 -57 -15 -105 -25 -107 -23 -3 2 35 17 83 32 48 16 106 37 129 47 24
11 54 19 68 19 18 0 25 5 25 19 0 11 6 22 13 25 6 3 -1 2 -18 -1 -45 -10 -80
-9 -78 2 1 6 8 25 15 44 10 27 10 35 0 38 -6 3 -10 8 -7 13 3 4 -2 13 -10 20
-13 11 -14 6 -9 -34 6 -38 4 -46 -9 -46 -9 0 -20 7 -25 16 -10 17 -81 22 -149
9 -40 -7 -43 -6 -53 19 -16 44 -13 59 13 53 12 -2 33 -1 47 3 22 7 22 8 4 9
-26 1 -34 9 -27 27 6 16 39 19 48 4 8 -13 62 -13 70 0 3 5 18 8 33 6 15 -2 21
-1 14 1 -9 3 -12 14 -9 29 2 14 0 27 -4 30 -15 9 -10 31 8 38 18 7 35 -12 29
-31 -3 -6 2 -14 10 -17 10 -4 14 2 14 23 0 29 -17 90 -30 104 -4 5 -91 -12
-193 -37 -102 -25 -190 -46 -195 -46 -5 0 -15 20 -21 44 -14 57 -15 53 10 59
18 5 20 11 14 34 -3 15 -7 32 -8 37 -1 5 12 16 28 24 17 8 32 19 33 24 2 4 12
8 23 8 15 0 18 5 14 23 -5 19 1 28 32 50 21 14 50 31 65 38 15 6 25 15 23 19
-11 18 136 65 435 140 113 29 228 58 255 65 75 19 88 19 82 -5z m731 -6 c-6
-5 -199 -54 -216 -54 -26 0 -2 18 33 24 19 4 35 10 35 14 0 12 76 31 100 25
17 -5 21 -3 15 6 -6 10 -3 11 15 1 12 -6 20 -13 18 -16z m736 -10 c9 -23 8
-24 -13 -24 -22 0 -36 26 -18 34 20 8 25 7 31 -10z m-1313 -56 c2 -26 0 -51
-4 -54 -4 -4 -7 1 -8 12 0 10 -2 39 -5 64 -3 28 -1 41 5 35 6 -6 11 -31 12
-57z m1219 27 c0 -9 -6 -18 -14 -21 -8 -3 -12 -12 -9 -20 3 -8 0 -14 -6 -14
-10 0 -13 45 -4 63 7 13 33 7 33 -8z m114 -26 c-3 -5 -10 -7 -15 -3 -5 3 -7
10 -3 15 3 5 10 7 15 3 5 -3 7 -10 3 -15z m412 -26 c-11 -11 -19 6 -11 24 8
17 8 17 12 0 3 -10 2 -21 -1 -24z m-690 13 c14 -11 16 -18 8 -26 -15 -15 -44
-2 -44 21 0 23 9 24 36 5z m-186 0 c0 -3 -4 -8 -10 -11 -5 -3 -10 -1 -10 4 0
6 5 11 10 11 6 0 10 -2 10 -4z m-1925 -33 c14 -8 13 -12 -8 -35 -13 -14 -36
-33 -50 -43 -15 -10 -30 -27 -33 -39 -9 -36 -57 -57 -165 -73 -27 -4 -38 -1
-42 11 -5 13 -1 16 16 14 34 -5 31 16 -4 25 -29 8 -30 9 -15 26 21 23 20 35
-1 27 -19 -8 -33 9 -33 41 0 16 4 21 16 16 9 -3 19 -1 23 6 6 9 27 10 87 2 43
-5 81 -7 84 -5 3 3 -4 13 -15 21 -19 14 -18 15 18 9 21 -4 37 -3 37 3 0 11 62
6 85 -6z m2102 -28 c0 -8 -4 -15 -9 -15 -4 0 -8 7 -8 15 0 8 4 15 8 15 5 0 9
-7 9 -15z m269 -15 c15 -1 16 -2 4 -9 -21 -12 -80 -1 -80 14 0 20 23 24 41 9
8 -8 24 -14 35 -14z m-1311 11 c3 -5 1 -12 -5 -16 -5 -3 -10 1 -10 9 0 18 6
21 15 7z m1358 3 c8 -8 -3 -34 -14 -34 -5 0 -9 9 -9 20 0 19 11 26 23 14z
m-223 -23 c0 -5 -6 -12 -12 -15 -10 -5 -10 -7 0 -12 18 -8 15 -49 -7 -92 -11
-23 -17 -49 -14 -67 3 -22 2 -26 -5 -15 -5 8 -13 38 -17 66 -6 48 -5 52 17 59
l23 7 -23 6 c-13 4 -23 10 -23 15 1 4 1 16 1 26 0 18 14 27 48 30 6 0 12 -3
12 -8z m350 -20 c0 -6 -4 -13 -10 -16 -5 -3 -10 1 -10 9 0 9 5 16 10 16 6 0
10 -4 10 -9z m-233 -43 c-3 -7 -5 -2 -5 12 0 14 2 19 5 13 2 -7 2 -19 0 -25z
m-2667 -66 c11 -47 30 -80 30 -52 0 6 10 10 23 8 18 -2 21 -8 19 -33 -4 -39
-9 -43 -26 -20 -7 10 -18 15 -23 12 -6 -4 -17 21 -28 61 -26 103 -27 109 -17
92 5 -8 15 -39 22 -68z m2924 32 c10 -25 -1 -29 -14 -5 -6 12 -7 21 -1 21 5 0
12 -7 15 -16z m-164 -44 c0 -36 -2 -40 -25 -40 -22 0 -25 4 -25 33 0 38 6 47
32 47 14 0 18 -8 18 -40z m380 5 c0 -38 -15 -45 -36 -17 -10 14 -10 20 3 35
24 26 33 21 33 -18z m-3092 -6 c-2 -6 -8 -10 -13 -10 -5 0 -11 4 -13 10 -2 6
4 11 13 11 9 0 15 -5 13 -11z m137 1 c-3 -5 -13 -10 -21 -10 -8 0 -12 5 -9 10
3 6 13 10 21 10 8 0 12 -4 9 -10z m2375 0 c0 -5 -4 -10 -10 -10 -5 0 -10 5
-10 10 0 6 5 10 10 10 6 0 10 -4 10 -10z m400 6 c0 -3 -4 -8 -10 -11 -5 -3
-10 -1 -10 4 0 6 5 11 10 11 6 0 10 -2 10 -4z m-2850 -26 c-20 -13 -33 -13
-25 0 3 6 14 10 23 10 15 0 15 -2 2 -10z m2448 -25 c-3 -3 -9 2 -12 12 -6 14
-5 15 5 6 7 -7 10 -15 7 -18z m-348 -5 c0 -5 -4 -10 -9 -10 -6 0 -13 5 -16 10
-3 6 1 10 9 10 9 0 16 -4 16 -10z m209 -38 c5 -18 6 -32 1 -32 -14 0 -42 51
-35 67 8 21 23 6 34 -35z m361 -64 c0 -19 -20 -5 -39 26 -25 41 -26 44 -3 48
12 2 21 -7 29 -32 7 -19 13 -38 13 -42z m-736 51 c-3 -5 -10 -7 -15 -3 -5 3
-7 10 -3 15 3 5 10 7 15 3 5 -3 7 -10 3 -15z m-34 1 c0 -5 -5 -10 -11 -10 -5
0 -7 5 -4 10 3 6 8 10 11 10 2 0 4 -4 4 -10z m45 -98 c-3 -3 -11 0 -18 7 -9
10 -8 11 6 5 10 -3 15 -9 12 -12z m-375 -2 c0 -5 -4 -10 -9 -10 -6 0 -13 5
-16 10 -3 6 1 10 9 10 9 0 16 -4 16 -10z m-40 -10 c0 -5 -5 -10 -11 -10 -5 0
-7 5 -4 10 3 6 8 10 11 10 2 0 4 -4 4 -10z m845 -10 c3 -5 1 -10 -4 -10 -6 0
-11 5 -11 10 0 6 2 10 4 10 3 0 8 -4 11 -10z m-3424 -20 c30 -17 23 -28 -21
-32 -43 -4 -55 12 -22 31 21 13 20 13 43 1z m1089 -47 c7 -24 20 -49 29 -55
12 -7 15 -21 13 -49 -2 -21 -7 -39 -11 -39 -8 1 -71 161 -71 182 0 33 28 7 40
-39z m-1182 -5 c-6 -18 -58 -30 -58 -12 0 7 6 11 14 8 8 -3 17 -1 21 5 9 15
28 14 23 -1z m3857 -18 c-5 -8 -11 -8 -17 -2 -6 6 -7 16 -3 22 5 8 11 8 17 2
6 -6 7 -16 3 -22z m-3800 10 c-3 -5 -13 -10 -21 -10 -8 0 -14 5 -14 10 0 6 9
10 21 10 11 0 17 -4 14 -10z m4197 -22 c5 -49 -3 -109 -13 -102 -12 7 -12 134
0 134 6 0 11 -15 13 -32z m-3999 -63 l7 -50 -15 45 c-16 49 -21 113 -6 75 5
-11 11 -42 14 -70z m116 13 c1 -5 -4 -8 -9 -8 -15 0 -31 47 -23 67 5 13 9 9
19 -18 7 -19 13 -37 13 -41z m408 66 c-3 -3 -12 -4 -19 -1 -8 3 -5 6 6 6 11 1
17 -2 13 -5z m753 -4 c0 -5 -7 -10 -15 -10 -8 0 -15 5 -15 10 0 6 7 10 15 10
8 0 15 -4 15 -10z m-270 -30 c0 -5 -7 -7 -15 -4 -8 4 -12 10 -9 15 6 11 24 2
24 -11z m135 -50 c4 -6 14 -9 23 -8 10 2 23 -10 34 -32 22 -44 22 -54 2 -46
-9 4 -22 2 -28 -2 -18 -14 -48 -23 -41 -12 4 6 -4 6 -21 0 -15 -6 -28 -9 -29
-8 -6 7 -25 47 -25 52 0 3 15 6 34 6 19 0 38 5 42 11 4 7 0 9 -14 5 -25 -8
-38 10 -22 29 14 17 36 19 45 5z m-1460 -10 c11 -5 14 -9 6 -9 -7 -1 -11 -7
-8 -16 4 -8 2 -17 -3 -20 -6 -4 -10 -1 -10 4 0 6 -7 11 -15 11 -17 0 -18 2 -9
24 7 18 10 18 39 6z m147 -13 c4 -20 1 -23 -19 -19 -19 4 -23 0 -23 -22 0 -14
4 -26 10 -26 12 0 44 -60 36 -68 -8 -7 -44 35 -52 60 -7 25 -50 21 -48 -5 1
-10 -5 -17 -16 -17 -17 0 -17 2 -4 28 7 16 30 37 49 48 19 10 35 24 35 31 0
23 28 14 32 -10z m88 -12 c0 -8 -4 -15 -10 -15 -5 0 -10 7 -10 15 0 8 5 15 10
15 6 0 10 -7 10 -15z m61 1 c5 3 9 -7 9 -21 0 -37 -24 -27 -27 11 -1 16 0 23
3 16 3 -6 10 -10 15 -6z m3563 -18 c10 -38 7 -48 -14 -48 -11 0 -20 7 -20 15
0 8 7 15 16 15 8 0 12 5 9 10 -4 6 -11 8 -16 5 -5 -3 -6 1 -3 9 9 23 21 20 28
-6z m-2497 6 c-3 -3 -12 -4 -19 -1 -8 3 -5 6 6 6 11 1 17 -2 13 -5z m2530 -16
c-3 -8 -6 -5 -6 6 -1 11 2 17 5 13 3 -3 4 -12 1 -19z m-2574 -15 c-3 -8 -12
-12 -20 -9 -8 3 -17 6 -19 6 -2 0 -4 6 -4 14 0 9 8 12 24 9 16 -4 23 -10 19
-20z m2467 6 c0 -6 -4 -7 -10 -4 -5 3 -10 11 -10 16 0 6 5 7 10 4 6 -3 10 -11
10 -16z m-3230 -9 c0 -11 -4 -20 -10 -20 -5 0 -10 -13 -10 -30 0 -21 4 -28 14
-24 7 3 21 -6 30 -21 17 -26 13 -51 -6 -39 -7 4 -8 2 -4 -4 4 -7 14 -12 22
-12 26 0 14 -18 -17 -25 -47 -11 -119 13 -130 42 -16 43 -9 67 32 111 44 45
79 55 79 22z m2180 10 c0 -5 -2 -10 -4 -10 -3 0 -8 5 -11 10 -3 6 -1 10 4 10
6 0 11 -4 11 -10z m-1575 -19 c48 -22 91 -69 100 -111 8 -39 -36 -123 -79
-149 -73 -45 -182 -65 -204 -38 -17 20 -52 137 -52 173 0 17 7 37 15 44 8 7
15 19 15 26 0 8 5 14 10 14 6 0 10 6 10 14 0 45 111 61 185 27z m-948 -47 c-8
-8 -37 21 -37 38 0 7 9 4 22 -9 12 -13 19 -25 15 -29z m1461 12 c3 -16 0 -18
-24 -12 -37 10 -42 15 -24 27 22 13 44 7 48 -15z m46 -54 c6 -9 -233 -76 -241
-68 -5 5 201 74 224 75 6 1 14 -3 17 -7z m-1516 -67 c-3 -3 -9 2 -12 12 -6 14
-5 15 5 6 7 -7 10 -15 7 -18z m3792 5 c0 -18 -3 -19 -20 -8 -14 9 -16 14 -7
20 20 13 27 9 27 -12z m-2190 -4 c0 -2 3 -12 6 -21 5 -13 2 -15 -19 -10 -14 4
-43 1 -64 -6 -21 -7 -40 -14 -43 -14 -65 -11 -80 -18 -80 -33 0 -13 -14 -21
-46 -30 -25 -7 -50 -10 -55 -7 -17 11 -9 35 11 35 12 0 31 7 44 15 40 26 246
86 246 71z m-1540 -88 c0 -18 -18 -6 -30 20 -23 45 -23 48 4 17 14 -16 26 -33
26 -37z m1419 -10 c11 -30 -5 -50 -38 -46 -20 2 -25 8 -24 31 1 15 1 29 2 32
1 3 12 5 26 5 17 0 28 -7 34 -22z m2351 -16 c0 -13 -12 -22 -22 -16 -10 6 -1
24 13 24 5 0 9 -4 9 -8z m-2714 -28 c4 -14 1 -43 -6 -64 -11 -33 -11 -43 2
-62 8 -13 20 -40 27 -60 11 -32 10 -41 -8 -75 -26 -49 -39 -64 -77 -91 -40
-27 -142 -54 -192 -50 l-37 3 -17 85 c-9 47 -18 114 -20 150 l-3 65 45 23 c52
26 124 29 195 7 27 -8 52 -12 57 -9 4 3 8 27 8 55 0 52 15 66 26 23z m2748 -1
c-9 -38 -15 -46 -25 -36 -10 10 11 63 24 63 4 0 4 -12 1 -27z m-2631 -21 c4
-17 16 -33 32 -40 31 -14 25 -31 -9 -25 -13 3 -32 1 -41 -5 -15 -8 -10 -12 30
-27 47 -18 72 -52 61 -82 -6 -15 6 -17 20 -4 5 5 41 19 79 30 124 36 266 80
276 86 5 4 9 15 9 26 0 21 12 24 40 9 15 -8 17 -7 12 12 -4 18 -2 20 13 14 11
-4 22 -2 26 6 6 9 13 9 33 0 20 -9 24 -9 20 2 -3 8 -2 16 3 19 11 7 38 -14 46
-37 6 -16 4 -18 -21 -13 l-29 6 9 -40 c4 -21 12 -58 17 -81 10 -47 5 -72 -15
-64 -19 7 -18 -25 1 -50 8 -11 15 -14 15 -6 0 26 30 10 44 -23 18 -42 11 -69
-15 -62 -11 3 -19 4 -19 3 0 -2 9 -31 20 -65 20 -58 26 -85 51 -206 6 -27 16
-53 22 -57 14 -9 -7 -34 -46 -55 -22 -11 -26 -18 -18 -26 15 -15 14 -36 -3
-53 -11 -10 -17 -11 -22 -3 -3 6 -1 15 7 20 10 6 5 11 -16 20 -27 10 -28 12
-10 19 17 7 15 9 -15 17 -19 6 -42 7 -50 2 -20 -10 -60 23 -60 49 0 25 57 74
79 68 9 -3 28 0 43 7 26 11 27 13 13 37 -8 14 -19 36 -25 50 -22 53 -34 70
-47 70 -7 0 -13 4 -13 9 0 9 -13 14 -90 36 -52 15 -134 9 -151 -11 -6 -8 -17
-14 -25 -14 -7 0 -17 -8 -23 -17 -9 -17 -10 -17 -16 0 -25 62 -44 -66 -22
-142 8 -28 11 -53 7 -56 -12 -7 -27 16 -34 55 -18 103 -28 135 -51 162 -15 17
-29 45 -33 62 l-6 31 -7 -30 c-5 -26 -7 -28 -13 -10 -4 11 -12 29 -16 40 -22
53 -33 124 -22 138 23 28 -2 64 -57 84 -27 9 -52 24 -55 33 -2 8 -11 33 -19
55 -8 22 -14 42 -12 45 2 3 24 6 48 8 41 1 45 -1 50 -26z m-1193 -4 c0 -12 -1
-19 -3 -17 -1 2 -9 12 -16 22 -12 14 -11 17 3 17 10 0 16 -8 16 -22z m450 2
c12 -7 6 -16 -28 -49 -46 -44 -90 -61 -140 -53 -36 5 -40 17 -16 51 32 46 143
77 184 51z m1008 -64 l1 -43 -72 -22 c-81 -24 -97 -26 -97 -11 0 6 5 10 10 10
6 0 10 5 10 11 0 6 -8 9 -18 7 -11 -3 -23 2 -30 13 -10 16 -8 21 13 35 13 9
30 14 37 11 7 -2 22 0 33 6 10 5 28 10 40 11 11 1 20 8 21 16 2 29 4 30 28 15
18 -12 24 -25 24 -59z m2257 44 c3 -5 1 -10 -4 -10 -6 0 -11 5 -11 10 0 6 2
10 4 10 3 0 8 -4 11 -10z m-3495 -24 c0 -14 5 -28 10 -31 6 -4 7 -11 4 -17
-10 -15 -34 20 -34 49 0 13 5 23 10 23 6 0 10 -11 10 -24z m3650 -36 c0 -5 -4
-10 -10 -10 -5 0 -10 5 -10 10 0 6 5 10 10 10 6 0 10 -4 10 -10z m-1965 -105
c11 -22 22 -41 25 -43 33 -17 35 -22 22 -43 -7 -11 -12 -22 -10 -24 11 -9 68
-13 73 -5 9 15 25 12 25 -4 0 -10 -13 -16 -37 -18 -43 -4 -55 -23 -20 -32 15
-3 30 -18 37 -37 7 -17 25 -35 39 -41 27 -10 97 -3 116 11 16 14 58 17 62 5 2
-7 -26 -21 -68 -34 -82 -25 -128 -21 -159 12 l-20 22 0 -25 c1 -36 20 -54 71
-68 40 -11 52 -10 105 7 32 11 74 28 91 37 38 19 76 12 71 -13 -2 -12 -18 -19
-55 -23 -28 -4 -55 -9 -61 -13 -30 -18 -125 -34 -149 -25 -14 5 -28 7 -30 5
-10 -10 19 -76 34 -76 13 0 114 29 228 65 22 7 44 11 49 7 16 -10 -25 -31 -93
-47 -100 -23 -173 -44 -179 -50 -4 -3 -6 -22 -6 -41 0 -32 -1 -34 -13 -18 -7
10 -13 24 -13 32 0 8 -6 26 -14 40 -28 55 -46 103 -46 124 0 11 -8 35 -18 52
-10 17 -36 85 -57 151 -21 66 -42 128 -47 138 -7 15 -6 18 9 15 10 -2 27 -21
38 -43z m2025 -32 c0 -20 -3 -24 -11 -16 -7 7 -9 19 -6 27 10 24 17 19 17 -11z
m-50 -13 c0 -5 -4 -10 -9 -10 -6 0 -13 5 -16 10 -3 6 1 10 9 10 9 0 16 -4 16
-10z m-3465 -10 c3 -6 -4 -10 -17 -10 -18 0 -20 2 -8 10 19 12 18 12 25 0z
m-114 -12 c5 -93 21 -141 50 -148 l24 -6 -23 -6 c-22 -6 -24 -11 -19 -60 2
-30 9 -64 16 -75 6 -12 11 -48 10 -80 -1 -55 -2 -56 -11 -23 -5 19 -15 69 -23
110 -8 41 -21 104 -29 140 -18 75 -21 160 -6 160 6 0 10 -6 11 -12z m59 -4 c0
-2 -9 -4 -21 -4 -11 0 -18 4 -14 10 5 8 35 3 35 -6z m3450 -18 c0 -3 -4 -8
-10 -11 -5 -3 -10 -1 -10 4 0 6 5 11 10 11 6 0 10 -2 10 -4z m-2585 -66 c0
-36 -29 -33 -33 3 -3 23 0 28 15 25 12 -2 18 -12 18 -28z m850 -20 c14 -16 15
-20 4 -20 -16 0 -39 19 -39 32 0 14 16 9 35 -12z m56 -15 c-1 -15 -24 -12 -29
3 -3 9 2 13 12 10 10 -1 17 -7 17 -13z m799 -5 c0 -12 -28 -25 -36 -17 -9 9 6
27 22 27 8 0 14 -5 14 -10z m-1014 -57 c15 -35 12 -53 -10 -53 -23 0 -47 76
-30 93 11 11 25 -4 40 -40z m1560 22 c8 -13 13 -28 10 -33 -3 -4 -49 -21 -103
-37 -54 -16 -100 -30 -102 -32 -2 -1 2 -21 9 -43 15 -46 5 -66 -27 -56 -21 7
-53 65 -53 97 0 25 52 79 77 80 10 0 50 11 88 24 88 29 82 29 101 0z m-2212
-37 c10 -37 7 -58 -8 -58 -16 0 -26 21 -26 56 0 31 26 32 34 2z m1140 -44 c21
-21 20 -23 -11 -35 -35 -13 -64 11 -43 35 16 20 34 20 54 0z m-433 -91 c8 -25
8 -38 1 -45 -16 -16 -39 6 -47 42 -13 60 26 62 46 3z m607 10 c54 -13 72 -21
72 -34 0 -26 -56 -29 -120 -7 -67 24 -110 20 -244 -22 -89 -27 -121 -32 -103
-14 3 3 51 21 107 40 56 19 110 39 119 44 25 14 88 12 169 -7z m-1268 -65 c0
-15 -4 -28 -9 -28 -14 0 -34 58 -26 77 6 17 7 17 21 -1 8 -11 14 -32 14 -48z
m1190 16 c14 -4 35 -17 47 -30 28 -30 81 -32 111 -4 12 11 26 20 32 20 21 0 9
-27 -22 -50 -44 -33 -105 -31 -130 4 -29 39 -98 43 -201 12 -47 -14 -95 -26
-108 -26 -23 1 -23 1 -5 12 32 18 220 76 236 73 8 -2 26 -7 40 -11z m1081 -14
c41 -23 22 -42 -150 -151 -64 -41 -86 -43 -98 -13 -4 12 3 25 21 41 38 33 31
58 -17 58 -41 1 -78 28 -61 45 20 20 273 36 305 20z m-2095 -27 c-8 -8 -36 5
-36 17 0 7 6 7 21 0 11 -7 18 -14 15 -17z m533 -64 c16 -46 14 -59 -9 -59 -21
0 -40 34 -40 71 0 32 37 23 49 -12z m-667 -44 c7 -29 3 -45 -12 -45 -11 0 -29
61 -23 73 9 15 27 1 35 -28z m2598 -15 c-19 -13 -30 -13 -30 0 0 6 10 10 23
10 18 0 19 -2 7 -10z m-304 -25 c60 -25 90 -125 38 -125 -8 0 -25 18 -39 41
-21 33 -30 39 -48 33 -31 -9 -32 -10 -20 -48 6 -19 7 -39 3 -46 -12 -19 -44
-3 -64 31 -13 22 -23 28 -34 24 -40 -16 -88 -17 -101 -1 -22 27 -7 39 90 72
108 37 127 39 175 19z m361 -2 c0 -25 -16 -43 -40 -43 -19 0 -20 1 -2 20 10
11 14 20 9 21 -5 0 0 4 11 9 11 5 20 9 21 9 0 1 1 -7 1 -16z m-1890 -25 c-3
-8 -6 -5 -6 6 -1 11 2 17 5 13 3 -3 4 -12 1 -19z m-40 -56 c10 -25 11 -38 3
-46 -26 -26 -73 51 -49 81 15 17 28 7 46 -35z m1926 20 c-20 -21 -28 -20 -20
3 4 8 13 15 22 15 13 0 12 -3 -2 -18z m-1538 -2 c3 -5 15 -10 26 -10 14 0 19
-7 19 -30 0 -19 7 -33 20 -40 14 -8 19 -17 15 -30 -3 -10 -1 -21 5 -25 16 -10
12 -45 -5 -45 -8 0 -15 5 -15 11 0 7 -14 8 -39 4 -42 -7 -47 -3 -67 50 -7 17
-18 44 -25 61 -17 42 -7 64 30 64 16 0 33 -4 36 -10z m-1065 -67 c0 -13 -6
-23 -14 -23 -16 0 -31 53 -20 71 10 16 34 -18 34 -48z m4722 -33 c10 -11 15
-26 12 -35 -9 -21 -22 -19 -29 6 -5 15 -10 18 -15 9 -4 -6 -23 -12 -41 -13
-32 -2 -34 0 -37 35 -2 28 1 39 17 47 11 6 27 8 35 5 10 -4 19 1 23 12 6 15 9
13 13 -13 3 -18 13 -42 22 -53z m-3797 -22 c-13 -47 -26 -56 -47 -35 -8 8 -23
17 -35 21 -34 11 -37 35 -5 42 15 3 32 7 37 9 6 2 22 4 36 4 27 1 27 1 14 -41z
m1430 12 c8 -26 2 -35 -45 -61 -62 -35 -53 -51 23 -43 51 5 65 3 76 -10 33
-39 -1 -50 -191 -63 -72 -4 -101 -3 -113 7 -22 18 -18 47 8 63 12 8 62 39 111
70 96 61 121 68 131 37z m-2968 -12 c-3 -8 -6 -5 -6 6 -1 11 2 17 5 13 3 -3 4
-12 1 -19z m3193 1 c0 -6 -4 -7 -10 -4 -5 3 -10 11 -10 16 0 6 5 7 10 4 6 -3
10 -11 10 -16z m-3222 -7 c2 -7 -5 -12 -17 -12 -12 0 -21 -5 -21 -11 0 -5 -4
-7 -10 -4 -5 3 -10 15 -10 25 0 14 7 18 27 17 14 -1 28 -8 31 -15z m1632 -2
c0 -5 -5 -10 -11 -10 -5 0 -7 5 -4 10 3 6 8 10 11 10 2 0 4 -4 4 -10z m-261
-41 c16 -46 14 -59 -9 -59 -21 0 -40 34 -40 71 0 32 37 23 49 -12z m95 15 c9
-3 16 -13 16 -21 0 -10 -6 -13 -16 -9 -9 3 -18 6 -20 6 -2 0 -4 7 -4 15 0 17
2 18 24 9z m-784 -50 c13 -34 13 -44 -4 -44 -13 0 -26 28 -26 58 0 22 20 13
30 -14z m887 10 c-3 -3 -12 -4 -19 -1 -8 3 -5 6 6 6 11 1 17 -2 13 -5z m263
-3 c0 -12 -20 -25 -27 -18 -7 7 6 27 18 27 5 0 9 -4 9 -9z m1540 5 c0 -2 -7
-6 -15 -10 -8 -3 -15 -1 -15 4 0 6 7 10 15 10 8 0 15 -2 15 -4z m-1760 -35 c0
-11 -5 -23 -11 -27 -15 -9 -33 12 -26 30 9 23 37 20 37 -3z m-1505 -11 c3 -5
2 -10 -4 -10 -5 0 -13 5 -16 10 -3 6 -2 10 4 10 5 0 13 -4 16 -10z m-85 -26
c0 -9 -5 -14 -12 -12 -18 6 -21 28 -4 28 9 0 16 -7 16 -16z m1630 12 c0 -3 -4
-8 -10 -11 -5 -3 -10 -1 -10 4 0 6 5 11 10 11 6 0 10 -2 10 -4z m-1705 -36 c3
-5 1 -10 -4 -10 -6 0 -11 5 -11 10 0 6 2 10 4 10 3 0 8 -4 11 -10z m1481 -46
c16 -39 13 -64 -9 -64 -24 0 -48 75 -30 93 13 14 24 6 39 -29z m1678 4 c7 -12
7 -21 1 -27 -16 -16 -267 -100 -281 -94 -17 6 -28 43 -17 54 16 16 237 88 262
86 13 -1 29 -10 35 -19z m-2374 -65 c0 -13 -4 -23 -9 -23 -12 0 -23 48 -15 62
9 14 24 -10 24 -39z m-590 -11 c0 -19 -23 -32 -37 -21 -20 17 -15 29 12 29 14
0 25 -4 25 -8z m-86 -8 c9 -3 16 -11 16 -17 0 -8 -3 -8 -11 0 -6 6 -18 9 -25
6 -8 -3 -14 0 -14 6 0 12 11 14 34 5z m3096 -9 c18 -22 5 -55 -41 -103 -23
-24 -39 -46 -35 -49 3 -4 30 1 60 10 29 9 58 17 64 17 16 0 33 -35 26 -53 -6
-17 -231 -107 -266 -107 -31 0 -48 18 -48 49 0 17 17 43 52 78 28 29 49 55 47
58 -3 3 -33 -5 -68 -16 -66 -23 -91 -17 -91 22 0 23 20 33 144 74 115 38 139
41 156 20z m250 1 c0 -15 -14 -35 -21 -30 -15 9 -10 34 6 34 8 0 15 -2 15 -4z
m-3415 -45 c-10 -16 -25 -3 -25 22 0 20 1 20 16 5 9 -9 13 -21 9 -27z m1499
-42 c22 -55 7 -78 -28 -43 -16 15 -22 65 -9 77 13 14 21 6 37 -34z m-1377 15
c-3 -3 -12 -4 -19 -1 -8 3 -5 6 6 6 11 1 17 -2 13 -5z m667 -50 c3 -9 6 -23 6
-32 0 -21 -15 -5 -25 26 -7 25 9 31 19 6z m-166 -6 c-3 -7 -15 -18 -28 -25
-33 -16 -49 6 -17 24 29 16 50 16 45 1z m-468 -5 c0 -5 -5 -15 -10 -23 -8 -12
-10 -11 -10 8 0 12 5 22 10 22 6 0 10 -3 10 -7z m1557 -19 c-6 -6 -47 9 -47
17 0 5 11 3 25 -3 14 -6 24 -13 22 -14z m-1520 0 c-3 -3 -12 -4 -19 -1 -8 3
-5 6 6 6 11 1 17 -2 13 -5z m1560 -10 c-3 -3 -12 -4 -19 -1 -8 3 -5 6 6 6 11
1 17 -2 13 -5z m-1717 -39 c0 -8 -4 -15 -9 -15 -13 0 -22 16 -14 24 11 11 23
6 23 -9z m588 -7 c-7 -19 -38 -22 -38 -4 0 10 9 16 21 16 12 0 19 -5 17 -12z
m1335 -5 c-7 -2 -19 -2 -25 0 -7 3 -2 5 12 5 14 0 19 -2 13 -5z m-399 -54 c18
-45 15 -59 -12 -52 -20 5 -44 57 -35 79 10 26 31 14 47 -27z m-1258 4 c-7 -7
-26 7 -26 19 0 6 6 6 15 -2 9 -7 13 -15 11 -17z m2496 -27 c-3 -19 9 -21 26
-4 8 8 15 8 27 -2 9 -7 26 -15 38 -16 41 -5 77 -13 88 -20 7 -4 35 -8 63 -8
48 -1 126 -35 126 -55 0 -10 89 -32 103 -25 7 3 2 -3 -10 -13 l-22 -18 24 -50
c13 -27 24 -56 24 -64 1 -7 7 -11 16 -7 9 3 15 0 15 -8 0 -8 10 -23 23 -35 42
-39 82 -71 90 -71 4 0 7 -4 7 -9 0 -11 -40 -2 -60 13 -14 12 -69 39 -100 50
-8 3 -23 11 -32 18 -9 7 -19 10 -22 8 -2 -3 2 -36 9 -75 12 -62 12 -72 -3 -88
-20 -23 -56 -18 -61 8 -2 11 -15 31 -28 45 -14 14 -29 34 -33 46 -6 16 -24 25
-71 35 -43 9 -64 19 -67 31 -3 14 -14 17 -57 14 -30 -1 -61 -8 -69 -16 -13
-10 -19 -10 -31 0 -8 7 -12 17 -8 23 3 5 -2 16 -12 23 -14 11 -21 10 -42 -3
-22 -15 -26 -15 -40 0 -25 25 -9 51 27 43 22 -4 30 -2 30 9 0 13 19 20 43 16
12 -2 57 50 57 65 0 8 -10 14 -21 14 -19 0 -21 4 -15 31 5 24 1 35 -21 55 -14
13 -31 24 -38 24 -7 0 -12 14 -13 31 -1 29 0 30 21 16 12 -8 21 -22 19 -31z
m-1955 -13 c12 -34 7 -54 -13 -46 -15 6 -20 73 -5 73 5 0 13 -12 18 -27z
m-632 -7 c19 -13 18 -14 -8 -13 -15 1 -27 8 -27 15 0 16 12 15 35 -2z m3375
-53 c0 -7 -7 -13 -15 -13 -8 0 -15 4 -15 9 0 5 -3 17 -6 26 -6 15 -4 15 15 4
11 -8 21 -19 21 -26z m-3510 -3 c0 -21 -24 -28 -35 -10 -8 14 3 30 21 30 8 0
14 -9 14 -20z m394 -55 c3 -8 1 -15 -3 -15 -5 0 -11 7 -15 15 -3 8 -1 15 3 15
5 0 11 -7 15 -15z m1151 -24 c18 -41 14 -61 -11 -61 -16 0 -34 39 -34 76 0 37
25 29 45 -15z m-723 -46 c9 -34 1 -50 -17 -35 -14 12 -25 56 -17 65 11 11 26
-2 34 -30z m-736 -22 c-7 -7 -26 7 -26 19 0 6 6 6 15 -2 9 -7 13 -15 11 -17z
m-59 -25 c-3 -8 -6 -5 -6 6 -1 11 2 17 5 13 3 -3 4 -12 1 -19z m1593 -135 c0
-26 -3 -27 -29 -13 -23 12 -35 68 -19 87 10 12 15 9 29 -19 10 -18 18 -43 19
-55z m1090 63 c0 -7 -7 -19 -15 -26 -19 -15 -47 4 -38 26 7 18 53 19 53 0z
m1180 -2 c0 -8 -5 -12 -10 -9 -6 4 -8 11 -5 16 9 14 15 11 15 -7z m-3022 -75
c2 -32 1 -33 -13 -15 -18 24 -20 59 -2 54 6 -3 13 -20 15 -39z m2082 31 c0 -5
-7 -10 -15 -10 -8 0 -15 5 -15 10 0 6 7 10 15 10 8 0 15 -4 15 -10z m790 0 c0
-5 -4 -10 -10 -10 -5 0 -10 5 -10 10 0 6 5 10 10 10 6 0 10 -4 10 -10z m-1214
-74 c22 -56 23 -61 7 -78 -21 -24 -44 -23 -66 2 -9 11 -24 20 -32 20 -9 0 -22
14 -29 32 -24 56 9 89 82 84 8 -1 25 -28 38 -60z m-136 -32 c0 -21 -3 -23 -19
-15 -18 10 -34 45 -24 55 12 12 43 -16 43 -40z m1003 39 c-7 -2 -19 -2 -25 0
-7 3 -2 5 12 5 14 0 19 -2 13 -5z m-1164 -51 c5 -9 12 -34 16 -55 6 -33 5 -37
-13 -37 -11 0 -25 7 -32 15 -24 29 -58 7 -44 -30 7 -18 -20 -20 -32 -2 -5 6
-9 27 -9 45 0 29 6 37 40 57 49 29 62 30 74 7z m-553 -71 c6 -26 4 -33 -7 -29
-21 7 -43 52 -35 73 6 16 9 17 21 4 8 -8 18 -29 21 -48z m-1471 19 c3 -5 1
-10 -4 -10 -6 0 -11 5 -11 10 0 6 2 10 4 10 3 0 8 -4 11 -10z m-10 -29 c3 -5
1 -12 -5 -16 -5 -3 -10 1 -10 9 0 18 6 21 15 7z m45 -11 c0 -5 -7 -7 -15 -4
-8 4 -12 10 -9 15 6 11 24 2 24 -11z m689 -32 c1 -5 -3 -8 -9 -8 -5 0 -10 12
-9 28 0 24 1 25 9 7 5 -11 9 -23 9 -27z m1964 -71 c6 -16 -39 -61 -53 -52 -11
7 -14 48 -3 58 11 12 51 8 56 -6z m-2638 -55 c-4 -4 -10 -1 -12 6 -3 6 -9 10
-14 7 -5 -4 -6 1 -3 9 5 14 8 14 21 0 9 -8 12 -18 8 -22z m1482 12 c8 -20 -8
-36 -26 -25 -15 10 -8 41 9 41 6 0 13 -7 17 -16z m2681 -15 c15 -14 39 -31 55
-39 34 -17 35 -30 1 -30 -16 0 -37 -12 -55 -31 -32 -34 -70 -37 -76 -4 -10 53
-15 105 -10 117 8 21 55 14 85 -13z m-3440 -60 c4 -24 3 -24 -12 -4 -19 24
-20 38 -3 33 6 -3 13 -15 15 -29z m1957 1 c3 -5 -1 -10 -10 -10 -9 0 -13 5
-10 10 3 6 8 10 10 10 2 0 7 -4 10 -10z m22 -56 c12 -11 13 -18 4 -27 -8 -8
-11 -8 -11 1 0 7 -11 12 -24 12 -13 0 -26 7 -30 15 -8 21 40 20 61 -1z m-3856
-27 c-10 -9 -11 -8 -5 6 3 10 9 15 12 12 3 -3 0 -11 -7 -18z m589 -27 c0 -5
-4 -10 -10 -10 -5 0 -10 -8 -10 -17 0 -13 -3 -14 -11 -6 -8 8 -8 15 2 27 16
18 29 20 29 6z m-290 -20 c0 -5 -2 -10 -4 -10 -3 0 -8 5 -11 10 -3 6 -1 10 4
10 6 0 11 -4 11 -10z m-310 -50 c0 -11 -7 -20 -15 -20 -8 0 -15 9 -15 20 0 11
7 20 15 20 8 0 15 -9 15 -20z m4210 -115 c32 -17 39 -49 20 -86 -24 -44 -133
-63 -196 -33 -44 21 -52 49 -22 78 55 55 139 72 198 41z m-4320 -72 c-1 -24
-18 -35 -39 -24 -30 17 -26 31 9 31 17 0 30 -3 30 -7z m-110 -153 c0 -5 -7 -7
-15 -4 -8 4 -15 8 -15 10 0 2 7 4 15 4 8 0 15 -4 15 -10z m-320 -76 c0 -2 -7
-4 -15 -4 -8 0 -15 4 -15 10 0 5 7 7 15 4 8 -4 15 -8 15 -10z m68 -53 c10 -6
10 -10 -3 -21 -8 -7 -15 -10 -15 -7 0 3 -3 12 -6 21 -7 17 3 20 24 7z m1232
-37 c0 -24 -25 -71 -36 -67 -7 2 -14 -8 -18 -22 -5 -20 -13 -25 -36 -25 -19 0
-30 -5 -30 -14 0 -23 -20 -30 -38 -12 -14 14 -11 20 35 73 33 39 59 59 77 61
14 2 24 7 22 11 -3 4 1 8 9 8 8 0 15 -6 15 -13z m-780 -4 c0 -5 -2 -10 -4 -10
-3 0 -8 5 -11 10 -3 6 -1 10 4 10 6 0 11 -4 11 -10z m68 -86 c23 -11 32 -22
32 -40 0 -13 -6 -24 -12 -24 -18 1 -48 25 -48 39 0 7 -6 11 -12 10 -27 -3 -38
2 -38 16 0 20 38 19 78 -1z m-58 -134 c0 -5 -7 -10 -16 -10 -8 0 -12 5 -9 10
3 6 10 10 16 10 5 0 9 -4 9 -10z m1810 -274 c0 -20 -36 -48 -67 -51 -15 -1
-36 -6 -45 -10 -10 -4 -26 -4 -35 -1 -15 6 -15 8 3 26 20 20 124 61 137 53 4
-2 7 -10 7 -17z"/>
<path d="M3898 10898 c-33 -12 -38 -32 -5 -23 24 8 43 22 36 28 -2 3 -16 0
-31 -5z"/>
<path d="M6480 10612 c0 -4 18 -6 40 -4 22 2 40 6 40 8 0 2 -18 4 -40 4 -22 0
-40 -3 -40 -8z"/>
<path d="M6610 10616 c0 -2 9 -6 20 -9 11 -3 18 -1 14 4 -5 9 -34 13 -34 5z"/>
<path d="M5690 10483 c-32 -12 -41 -53 -12 -53 10 0 31 14 47 30 l29 30 -25
-1 c-13 0 -31 -3 -39 -6z"/>
<path d="M6410 10126 c-25 -8 -55 -17 -67 -21 -13 -4 -23 -11 -23 -15 0 -4
-11 -11 -25 -14 -36 -9 -145 -121 -177 -182 -33 -60 -58 -153 -58 -209 0 -55
25 -131 55 -171 80 -105 282 -97 425 17 151 121 215 339 143 485 -23 47 -37
63 -78 85 -62 34 -134 43 -195 25z"/>
<path d="M2238 8823 c7 -3 16 -2 19 1 4 3 -2 6 -13 5 -11 0 -14 -3 -6 -6z"/>
<path d="M538 8583 c7 -3 16 -2 19 1 4 3 -2 6 -13 5 -11 0 -14 -3 -6 -6z"/>
<path d="M825 8430 c-13 -5 -14 -9 -5 -9 8 0 24 4 35 9 13 5 14 9 5 9 -8 0
-24 -4 -35 -9z"/>
<path d="M2548 6993 c7 -3 16 -2 19 1 4 3 -2 6 -13 5 -11 0 -14 -3 -6 -6z"/>
<path d="M2595 6972 c10 -7 35 -47 35 -56 0 -2 -12 -7 -27 -12 -16 -4 -30 -8
-33 -9 -3 -1 -22 -9 -44 -18 -21 -9 -44 -17 -52 -17 -19 0 -26 -17 -19 -41 8
-23 25 -23 125 4 30 9 79 22 108 30 29 8 54 16 56 18 3 2 2 16 -1 31 -5 24 -7
25 -36 17 -42 -12 -64 -3 -82 32 -9 16 -21 29 -28 29 -7 0 -8 -3 -2 -8z"/>
<path d="M2505 6960 c-3 -5 -1 -18 5 -27 9 -15 10 -14 4 6 -4 16 -3 21 5 17 6
-4 11 -2 11 3 0 14 -17 14 -25 1z"/>
<path d="M2528 6893 c7 -3 16 -2 19 1 4 3 -2 6 -13 5 -11 0 -14 -3 -6 -6z"/>
<path d="M2841 6895 c-1 -5 11 -37 25 -70 14 -33 22 -46 19 -30 -7 34 -43 115
-44 100z"/>
<path d="M2620 6770 c-30 -11 -60 -18 -67 -15 -9 3 -11 -5 -6 -28 8 -41 8 -41
26 -22 20 20 25 19 45 -5 13 -16 24 -19 50 -14 17 4 32 11 32 16 0 5 7 16 15
24 8 9 15 26 15 40 0 20 -5 24 -27 23 -16 0 -53 -9 -83 -19z"/>
<path d="M1868 6665 c-6 -51 3 -61 49 -49 30 7 37 14 35 29 -2 11 -3 28 -3 38
0 13 -9 17 -39 17 -36 0 -38 -2 -42 -35z"/>
<path d="M2310 6404 c6 -15 9 -37 8 -48 -3 -23 -4 -23 87 -6 l50 9 -53 -3
c-51 -3 -53 -2 -66 29 -18 41 -41 59 -26 19z"/>
<path d="M3375 6361 c-9 -16 18 -23 46 -12 16 6 18 10 7 10 -9 1 -23 4 -31 7
-8 3 -18 1 -22 -5z"/>
<path d="M2275 6340 c-3 -5 -1 -10 4 -10 6 0 11 5 11 10 0 6 -2 10 -4 10 -3 0
-8 -4 -11 -10z"/>
<path d="M3575 6320 c-16 -4 -94 -27 -171 -51 -122 -36 -140 -44 -128 -56 8
-8 14 -17 14 -21 0 -4 4 -13 9 -20 6 -10 16 -10 52 2 24 8 94 29 156 46 l112
33 -1 38 c0 22 -3 39 -7 38 -3 -1 -19 -5 -36 -9z m-220 -109 c3 -5 1 -12 -5
-16 -5 -3 -10 1 -10 9 0 18 6 21 15 7z"/>
<path d="M4262 6259 c-7 -12 -11 -24 -8 -27 3 -3 6 0 6 6 0 7 7 12 15 12 8 0
15 7 15 15 0 21 -13 19 -28 -6z"/>
<path d="M3116 6161 c-4 -6 -13 -8 -21 -5 -9 4 -13 -1 -11 -12 2 -10 8 -20 14
-22 7 -2 13 -11 13 -20 1 -9 5 1 9 23 8 41 7 54 -4 36z"/>
<path d="M4267 6150 c3 -11 13 -20 22 -20 13 0 13 2 2 9 -7 5 -10 14 -7 20 4
6 1 11 -7 11 -10 0 -13 -7 -10 -20z"/>
<path d="M3894 6049 c-3 -5 -14 -7 -24 -4 -10 3 -21 1 -25 -5 -3 -5 -15 -10
-26 -10 -29 0 -20 -34 10 -38 15 -2 21 0 17 7 -5 7 4 11 23 11 17 0 31 5 31
10 0 6 6 10 13 8 19 -3 67 11 67 21 0 12 -78 12 -86 0z"/>
<path d="M3048 6043 c7 -3 16 -2 19 1 4 3 -2 6 -13 5 -11 0 -14 -3 -6 -6z"/>
<path d="M3170 5960 c0 -5 7 -10 15 -10 8 0 15 5 15 10 0 6 -7 10 -15 10 -8 0
-15 -4 -15 -10z"/>
<path d="M4111 5956 c-16 -19 -11 -29 8 -17 7 5 12 14 9 21 -3 9 -8 7 -17 -4z"/>
<path d="M3943 5913 c1 -29 5 -53 9 -53 4 0 14 14 23 30 14 27 14 30 0 30 -9
0 -20 10 -24 23 -7 16 -9 9 -8 -30z"/>
<path d="M3310 5937 c0 -10 7 -20 15 -23 8 -4 15 -16 15 -29 0 -31 26 -39 50
-15 16 16 17 20 4 30 -7 7 -20 10 -28 7 -9 -4 -23 5 -35 21 -16 21 -20 23 -21
9z"/>
<path d="M4000 5944 c1 -5 7 -20 15 -34 13 -24 14 -24 15 -4 0 12 -7 27 -15
34 -8 7 -15 9 -15 4z"/>
<path d="M4040 5946 c0 -2 11 -6 25 -8 14 -3 25 -1 25 3 0 5 -11 9 -25 9 -14
0 -25 -2 -25 -4z"/>
<path d="M3875 5919 c-4 -11 -16 -24 -28 -29 -20 -8 -19 -9 9 -9 18 -1 38 7
47 17 15 16 15 19 -3 30 -16 10 -20 8 -25 -9z"/>
<path d="M3538 5913 c6 -2 18 -2 25 0 6 3 1 5 -13 5 -14 0 -19 -2 -12 -5z"/>
<path d="M3196 5895 c4 -8 8 -15 10 -15 2 0 4 7 4 15 0 8 -4 15 -10 15 -5 0
-7 -7 -4 -15z"/>
<path d="M3560 5891 c0 -5 9 -7 20 -4 11 3 20 7 20 9 0 2 -9 4 -20 4 -11 0
-20 -4 -20 -9z"/>
<path d="M2980 5880 c0 -5 4 -10 9 -10 6 0 13 5 16 10 3 6 -1 10 -9 10 -9 0
-16 -4 -16 -10z"/>
<path d="M3238 5863 c-10 -2 -18 -11 -18 -19 0 -8 -9 -14 -21 -14 -12 0 -17
-4 -14 -11 4 -6 20 -8 38 -4 24 5 28 4 17 -4 -12 -9 -10 -11 11 -11 21 0 28 6
32 27 8 42 0 48 -45 36z"/>
<path d="M3990 5840 c-9 -6 -10 -10 -3 -10 6 0 15 5 18 10 8 12 4 12 -15 0z"/>
<path d="M1000 6261 c0 -6 4 -13 10 -16 6 -3 7 1 4 9 -7 18 -14 21 -14 7z"/>
<path d="M2455 5973 c4 -10 10 -28 12 -40 3 -12 11 -19 18 -17 18 7 -3 74 -23
74 -10 0 -12 -6 -7 -17z"/>
<path d="M1986 5801 c-4 -7 -5 -15 -2 -18 9 -9 19 4 14 18 -4 11 -6 11 -12 0z"/>
<path d="M2080 5940 c0 -5 5 -10 10 -10 6 0 10 5 10 10 0 6 -4 10 -10 10 -5 0
-10 -4 -10 -10z"/>
<path d="M2040 5930 c-9 -6 -10 -10 -3 -10 6 0 15 5 18 10 8 12 4 12 -15 0z"/>
<path d="M4610 4050 c0 -5 4 -10 9 -10 6 0 13 5 16 10 3 6 -1 10 -9 10 -9 0
-16 -4 -16 -10z"/>
<path d="M5240 11496 c0 -13 -3 -31 -6 -40 -3 -9 -2 -16 4 -16 5 0 12 10 15
23 2 12 8 30 12 40 5 12 3 17 -9 17 -10 0 -16 -9 -16 -24z"/>
<path d="M4745 11280 c-3 -6 1 -7 9 -4 18 7 21 14 7 14 -6 0 -13 -4 -16 -10z"/>
<path d="M7825 10400 c3 -5 10 -10 16 -10 5 0 9 5 9 10 0 6 -7 10 -16 10 -8 0
-12 -4 -9 -10z"/>
<path d="M7670 10369 c0 -11 -15 -21 -44 -30 -25 -7 -42 -17 -40 -21 8 -12
-11 -9 -24 4 -6 6 -15 8 -19 4 -4 -4 -1 -12 7 -17 13 -9 13 -11 0 -16 -44 -17
-138 -135 -180 -226 -59 -125 -61 -238 -8 -317 42 -61 71 -75 156 -75 68 0 86
4 147 34 122 60 263 226 285 336 5 25 8 31 9 16 1 -15 5 -21 10 -15 12 12 22
152 11 156 -4 2 -11 18 -13 37 -3 18 -15 43 -26 55 -12 13 -18 26 -14 29 3 4
-3 7 -15 7 -16 0 -22 6 -22 21 0 13 -6 20 -17 18 -10 -1 -25 1 -35 5 -9 4 -50
8 -92 9 -65 2 -76 0 -76 -14z m-173 -471 c-3 -8 -6 -5 -6 6 -1 11 2 17 5 13 3
-3 4 -12 1 -19z m33 8 c0 -3 -4 -8 -10 -11 -5 -3 -10 -1 -10 4 0 6 5 11 10 11
6 0 10 -2 10 -4z"/>
<path d="M7501 10296 c-10 -12 -8 -13 8 -9 12 3 18 9 15 14 -7 12 -10 11 -23
-5z"/>
<path d="M1980 10203 c-14 -2 -40 -9 -59 -15 -33 -10 -33 -11 -27 -55 5 -40
32 -92 47 -93 15 0 119 120 119 138 0 17 -31 35 -50 31 -3 -1 -16 -4 -30 -6z"/>
<path d="M1835 9931 c-6 -11 9 -23 19 -14 9 9 7 23 -3 23 -6 0 -12 -4 -16 -9z"/>
<path d="M1774 9885 c-10 -8 -14 -15 -8 -15 6 0 17 7 24 15 16 19 9 19 -16 0z"/>
<path d="M7997 9793 c3 -7 8 -13 12 -13 18 -1 46 -34 47 -58 1 -15 3 -30 3
-34 1 -4 16 -5 34 -2 25 4 42 -2 79 -28 180 -128 236 -167 258 -178 23 -12
170 -49 198 -50 9 0 12 32 12 129 0 143 4 135 -76 146 -27 4 -157 27 -289 51
-306 56 -284 54 -278 37z"/>
<path d="M1150 9539 c-11 -20 -11 -20 17 -3 15 10 30 19 32 21 2 2 -5 3 -17 3
-12 0 -26 -9 -32 -21z"/>
<path d="M1055 9489 c4 -6 1 -9 -6 -8 -8 1 -27 -3 -42 -9 -16 -7 -33 -12 -38
-12 -5 0 -9 -6 -9 -14 0 -8 -14 -17 -30 -21 -17 -4 -36 -12 -43 -18 -13 -14
-65 -39 -85 -43 -8 -1 -21 -9 -30 -17 -10 -7 -33 -20 -52 -27 -61 -23 -105
-44 -118 -57 -7 -7 -20 -13 -28 -13 -8 0 -14 -4 -14 -10 0 -5 -8 -10 -19 -10
-10 0 -24 -7 -31 -15 -7 -8 -22 -15 -33 -15 -11 0 -30 -8 -41 -19 -12 -10 -40
-29 -64 -42 -37 -20 -45 -21 -53 -9 -7 11 -8 7 -3 -12 4 -20 2 -28 -7 -28 -8
0 -30 -14 -49 -30 -19 -17 -43 -33 -52 -36 -10 -3 -18 -10 -18 -15 0 -5 -5 -9
-10 -9 -6 0 -21 -9 -33 -20 -12 -12 -46 -33 -76 -47 -30 -15 -49 -29 -44 -30
10 -4 89 35 198 97 128 72 210 118 285 158 47 25 91 52 98 59 7 7 18 13 23 13
6 0 33 15 62 33 29 18 81 48 117 66 36 18 67 36 70 40 3 3 35 22 72 41 36 19
65 37 62 41 -5 9 21 30 29 23 3 -3 16 1 29 10 l22 16 -22 0 c-14 0 -21 -4 -17
-11z"/>
<path d="M6398 9273 c6 -2 18 -2 25 0 6 3 1 5 -13 5 -14 0 -19 -2 -12 -5z"/>
<path d="M1970 9110 c0 -14 -7 -20 -23 -20 -29 0 -37 -7 -30 -26 7 -19 23 -18
39 4 13 16 15 16 30 -3 12 -14 15 -15 11 -4 -3 9 -1 21 4 26 13 13 1 43 -17
43 -8 0 -14 -9 -14 -20z"/>
<path d="M1837 9104 c-8 -8 1 -24 14 -24 5 0 9 7 9 15 0 15 -12 20 -23 9z"/>
<path d="M215 9089 c-3 -4 2 -6 10 -5 21 3 28 13 10 13 -9 0 -18 -4 -20 -8z"/>
<path d="M2830 9096 c0 -2 9 -24 20 -49 18 -41 45 -65 58 -52 11 10 -31 83
-54 94 -13 6 -24 9 -24 7z"/>
<path d="M1702 9071 c2 -7 7 -12 11 -12 12 1 9 15 -3 20 -7 2 -11 -2 -8 -8z"/>
<path d="M1566 9052 c-3 -6 -1 -14 5 -17 15 -10 25 3 12 16 -7 7 -13 7 -17 1z"/>
<path d="M1430 9016 c0 -9 7 -16 16 -16 17 0 14 22 -4 28 -7 2 -12 -3 -12 -12z"/>
<path d="M1296 9002 c-3 -6 -1 -14 5 -17 15 -10 25 3 12 16 -7 7 -13 7 -17 1z"/>
<path d="M1160 8961 c0 -14 5 -19 15 -14 17 6 15 25 -3 31 -7 2 -12 -5 -12
-17z"/>
<path d="M2978 8964 c16 -8 64 -102 57 -114 -3 -4 -2 -10 3 -12 11 -4 62 -94
62 -108 0 -7 7 -28 16 -48 9 -21 25 -57 36 -82 11 -25 24 -53 29 -63 6 -10 7
-27 4 -38 -4 -13 -2 -19 6 -17 7 2 17 -13 23 -32 5 -19 13 -37 17 -40 4 -3 11
-18 14 -33 7 -26 -3 -34 -38 -28 -4 1 -18 -4 -30 -11 -12 -7 -29 -13 -38 -14
-9 -1 -28 -4 -43 -8 l-26 -6 20 -22 c11 -12 20 -25 21 -30 4 -30 2 -55 -5 -66
-5 -8 0 -12 13 -12 11 0 29 -13 40 -29 l21 -29 82 20 c45 10 83 20 84 21 2 1
-4 36 -12 77 -15 82 -22 101 -99 265 -29 61 -58 128 -65 150 -19 60 -124 278
-141 291 -8 6 -25 14 -39 18 -14 3 -19 3 -12 0z"/>
<path d="M1080 8915 c6 -8 9 -18 6 -24 -3 -5 0 -11 8 -14 9 -4 13 0 11 11 -2
9 -4 23 -4 30 -1 6 -8 12 -17 12 -13 0 -14 -3 -4 -15z"/>
<path d="M740 8890 c0 -5 7 -10 16 -10 8 0 12 5 9 10 -3 6 -10 10 -16 10 -5 0
-9 -4 -9 -10z"/>
<path d="M2864 8859 c-10 -17 12 -32 36 -24 17 5 19 10 9 21 -14 17 -35 18
-45 3z"/>
<path d="M2650 8819 c0 -5 11 -9 25 -9 14 0 25 2 25 4 0 2 -11 6 -25 8 -14 3
-25 1 -25 -3z"/>
<path d="M2930 8824 c-14 -3 -54 -11 -90 -19 -36 -8 -103 -19 -149 -25 -46 -5
-89 -14 -95 -19 -6 -5 -24 -11 -41 -13 -32 -3 -31 0 -23 -78 1 -8 7 -21 15
-28 7 -8 11 -18 7 -23 -3 -6 -2 -15 4 -22 5 -7 19 -39 32 -72 36 -95 53 -135
57 -131 2 2 -13 45 -33 97 -57 149 -66 180 -61 205 2 13 0 24 -6 24 -22 0 3
12 35 16 18 3 67 13 108 24 80 20 223 43 279 44 l35 1 83 -184 c46 -101 83
-192 83 -202 0 -25 15 -32 31 -13 10 12 10 15 -1 12 -8 -2 -16 9 -20 27 -4 17
-19 52 -34 80 -15 27 -24 55 -22 62 3 7 2 13 -2 13 -12 0 -64 108 -58 119 4 5
1 11 -5 13 -7 2 -19 24 -28 48 -17 47 -34 55 -101 44z"/>
<path d="M2570 8794 c0 -11 8 -14 32 -12 46 4 49 28 4 28 -26 0 -36 -4 -36
-16z"/>
<path d="M2651 8365 c-1 -21 15 -52 23 -45 2 3 -2 19 -9 35 -10 23 -14 25 -14
10z"/>
<path d="M7575 8330 c-8 -13 31 -50 55 -50 25 0 25 3 -4 34 -25 27 -41 32 -51
16z"/>
<path d="M8476 8303 c-4 -10 -4 -14 0 -10 4 4 13 2 19 -3 7 -6 20 -7 30 -4 17
7 17 8 -1 21 -24 18 -41 16 -48 -4z"/>
<path d="M8573 8293 c9 -2 25 -2 35 0 9 3 1 5 -18 5 -19 0 -27 -2 -17 -5z"/>
<path d="M7632 8248 c3 -7 15 -15 28 -16 21 -3 22 -2 11 12 -16 19 -44 21 -39
4z"/>
<path d="M7660 8212 c-52 -8 -68 -45 -24 -56 35 -9 61 0 67 24 6 24 -11 37
-43 32z"/>
<path d="M3390 8157 c0 -10 100 -207 105 -207 3 0 1 10 -4 23 -13 32 -101 193
-101 184z"/>
<path d="M7138 8132 c-10 -2 -18 -10 -18 -17 0 -9 -6 -12 -15 -8 -9 3 -25 -3
-35 -12 -17 -16 -24 -16 -44 -5 -27 14 -46 7 -46 -16 0 -12 14 -15 70 -13 39
1 70 5 70 9 0 4 24 5 53 3 28 -2 59 1 67 6 34 23 -45 64 -102 53z"/>
<path d="M7719 8028 c-6 -13 -20 -31 -31 -42 -29 -27 -15 -30 38 -7 75 33 96
71 39 71 -25 0 -37 -6 -46 -22z"/>
<path d="M6650 8001 c13 -10 13 -12 0 -20 -8 -6 -12 -13 -9 -16 11 -10 121 -7
131 3 6 6 23 9 37 6 14 -2 40 -1 56 4 25 7 14 10 -60 16 -49 4 -108 9 -130 12
-30 4 -36 2 -25 -5z"/>
<path d="M7580 7960 c0 -5 7 -10 15 -10 8 0 15 5 15 10 0 6 -7 10 -15 10 -8 0
-15 -4 -15 -10z"/>
<path d="M8060 7841 c-24 -7 -24 -7 -3 -13 14 -4 24 -1 27 8 3 8 4 14 3 13 -1
-1 -13 -4 -27 -8z"/>
<path d="M6695 7710 c3 -5 8 -10 11 -10 2 0 4 5 4 10 0 6 -5 10 -11 10 -5 0
-7 -4 -4 -10z"/>
<path d="M6385 7407 c5 -13 140 -77 163 -77 23 0 12 18 -15 25 -16 3 -54 20
-86 36 -65 33 -68 34 -62 16z"/>
<path d="M4124 7307 c-3 -8 -10 -14 -17 -15 -7 0 -35 -5 -64 -10 -35 -6 -56
-5 -63 2 -7 7 -10 7 -10 -1 0 -18 24 -32 65 -38 48 -7 105 23 105 55 0 23 -8
26 -16 7z"/>
<path d="M740 7210 c0 -5 5 -10 10 -10 6 0 10 5 10 10 0 6 -4 10 -10 10 -5 0
-10 -4 -10 -10z"/>
<path d="M7519 7186 c12 -13 35 -26 50 -29 16 -3 36 -14 45 -23 12 -12 20 -14
28 -6 7 7 -12 21 -61 46 -85 42 -92 44 -62 12z"/>
<path d="M7660 7121 c0 -12 5 -21 12 -21 6 0 26 -11 44 -25 18 -14 37 -25 43
-25 6 0 11 -13 11 -29 0 -59 24 -94 89 -126 33 -16 60 -34 61 -38 0 -5 14 -20
30 -34 17 -13 30 -34 30 -45 0 -11 8 -22 19 -25 11 -3 22 -11 25 -19 11 -28
31 -13 59 42 32 63 28 82 -7 41 -22 -25 -25 -26 -51 -13 -15 8 -33 23 -41 35
-9 12 -20 21 -26 21 -24 0 -98 72 -98 95 0 13 -4 27 -10 30 -5 3 -10 17 -10
31 0 34 -26 81 -51 95 -12 6 -38 12 -58 13 -20 2 -44 6 -53 10 -14 6 -18 3
-18 -13z"/>
<path d="M7060 6970 c0 -5 5 -10 11 -10 5 0 7 5 4 10 -3 6 -8 10 -11 10 -2 0
-4 -4 -4 -10z"/>
<path d="M6281 6686 c-7 -8 -27 -18 -44 -22 -44 -9 -89 -33 -82 -44 8 -13 158
1 173 17 17 17 28 17 36 -2 5 -13 36 -22 36 -10 0 8 -50 54 -70 65 -25 14 -35
13 -49 -4z"/>
<path d="M8064 6678 c-3 -5 0 -15 6 -23 8 -10 11 -34 8 -64 -5 -46 -3 -50 20
-56 15 -4 34 0 49 10 l25 17 -7 -62 -7 -62 44 7 44 7 12 -62 c13 -73 17 -78
42 -62 11 7 26 12 34 12 18 0 41 -70 51 -155 7 -55 8 -56 34 -50 14 4 30 7 34
8 10 2 16 -7 56 -88 16 -33 41 -82 55 -110 25 -49 35 -105 17 -105 -5 0 -11
-9 -14 -20 -3 -11 -12 -20 -20 -20 -9 0 -19 -9 -22 -20 -3 -11 -13 -20 -20
-20 -8 0 -17 -11 -21 -24 -7 -28 -60 -70 -76 -60 -6 4 -8 3 -5 -2 6 -10 -17
-31 -73 -67 -23 -15 -36 -32 -38 -50 -4 -32 11 -39 109 -57 35 -6 77 -19 94
-27 37 -19 77 -64 71 -79 -3 -7 7 -21 20 -33 14 -12 30 -34 37 -49 10 -22 13
85 15 542 2 581 2 577 -33 589 -5 2 1 34 13 71 13 38 21 70 20 71 -9 7 -195
35 -267 40 -47 4 -121 17 -165 30 -105 29 -135 34 -142 23z"/>
<path d="M6782 6567 c3 -26 15 -39 46 -56 12 -6 25 -24 28 -39 4 -15 15 -38
25 -52 9 -14 17 -32 16 -40 -1 -8 3 -16 8 -18 6 -1 11 9 13 23 2 14 8 25 13
25 16 0 10 36 -12 78 -35 66 -61 89 -102 95 -35 5 -38 4 -35 -16z"/>
<path d="M6951 6406 c-9 -10 -8 -16 4 -26 13 -11 15 -8 15 14 0 30 -3 32 -19
12z"/>
<path d="M5808 6383 c-10 -2 -18 -11 -18 -20 0 -10 6 -13 16 -9 9 3 20 6 25 6
5 0 9 7 9 15 0 15 -2 16 -32 8z"/>
<path d="M6946 6331 c-4 -7 -5 -15 -2 -18 9 -9 19 4 14 18 -4 11 -6 11 -12 0z"/>
<path d="M6915 6290 c3 -5 8 -10 11 -10 2 0 4 5 4 10 0 6 -5 10 -11 10 -5 0
-7 -4 -4 -10z"/>
<path d="M7530 6176 c-19 -23 -8 -61 18 -64 15 -2 29 -16 39 -38 9 -19 23 -34
30 -34 7 0 22 -9 33 -20 11 -11 25 -20 30 -20 16 0 11 19 -10 37 -11 10 -20
21 -20 25 0 4 -11 19 -25 34 -14 15 -25 33 -25 40 0 8 -4 14 -9 14 -5 0 -11 9
-14 20 -6 23 -29 26 -47 6z"/>
<path d="M7507 6097 c-3 -8 4 -19 14 -25 23 -15 26 2 5 23 -11 12 -15 12 -19
2z"/>
<path d="M7675 5919 c-6 -56 -16 -90 -45 -145 -54 -102 -87 -152 -110 -166
-11 -7 -20 -20 -20 -28 0 -8 -10 -26 -23 -40 -12 -14 -35 -42 -51 -62 -23 -31
-25 -38 -12 -38 26 0 99 40 121 66 11 13 28 24 38 24 9 0 17 5 17 10 0 6 16
18 35 27 19 9 35 20 35 25 0 4 7 8 15 8 18 0 115 99 115 117 0 8 11 24 25 36
16 14 31 45 42 89 17 66 14 93 -9 70 -28 -28 -137 -2 -138 32 0 6 -7 19 -14
29 -12 16 -15 10 -21 -54z"/>
<path d="M8630 5106 c0 -15 -42 -54 -108 -98 -33 -23 -42 -37 -52 -78 -9 -36
-17 -50 -29 -50 -9 0 -37 -12 -62 -28 -24 -15 -57 -34 -72 -42 -16 -8 -39 -24
-51 -35 -12 -11 -58 -36 -102 -55 -43 -18 -83 -37 -88 -42 -6 -4 -21 -8 -34
-8 -13 0 -30 -7 -38 -15 -14 -13 -13 -15 5 -15 24 0 26 -17 6 -44 -8 -11 -15
-28 -15 -38 0 -10 -10 -27 -23 -38 -13 -11 -30 -36 -37 -55 -12 -30 -20 -36
-52 -41 -21 -4 -38 -10 -38 -15 0 -5 -7 -9 -15 -9 -7 0 -18 -8 -24 -17 -14
-25 -44 -5 -52 33 -8 41 -55 138 -74 154 -8 7 -15 18 -15 24 0 6 -11 24 -25
40 -14 16 -25 35 -25 43 0 8 -15 27 -32 44 -35 32 -64 39 -54 13 3 -8 -1 -29
-10 -46 -19 -36 -14 -61 28 -143 34 -67 55 -91 94 -105 23 -9 25 -13 18 -43
-5 -17 -9 -51 -9 -74 0 -22 -3 -45 -7 -49 -5 -4 -8 -18 -8 -31 0 -18 -8 -27
-30 -34 -25 -9 -30 -16 -30 -45 0 -43 -19 -84 -39 -84 -9 0 -25 -7 -35 -15
-11 -8 -26 -15 -34 -15 -7 0 -20 -7 -29 -15 -8 -8 -19 -13 -24 -10 -5 4 -9 1
-9 -5 0 -7 -8 -9 -21 -5 -13 5 -19 3 -15 -3 4 -6 -15 -10 -48 -11 -39 0 -56 4
-60 14 -4 11 -23 15 -71 15 -36 0 -65 4 -65 9 0 5 -19 15 -41 23 -36 11 -44
19 -60 63 -20 53 -25 110 -10 100 5 -3 13 -1 16 5 4 6 1 9 -6 8 -7 -2 -19 15
-28 37 -20 53 -31 63 -80 74 -22 5 -57 18 -77 30 -22 13 -45 19 -58 16 -17 -5
-18 -4 -6 5 12 10 10 11 -10 6 -14 -3 -31 -6 -38 -6 -8 0 -12 -9 -10 -22 3
-20 9 -23 43 -23 37 0 40 -2 43 -30 5 -38 20 -57 42 -50 28 9 59 -40 78 -123
16 -70 21 -79 59 -107 23 -16 47 -41 55 -55 7 -13 32 -54 55 -89 23 -36 45
-79 49 -96 4 -16 13 -39 20 -50 8 -11 14 -31 14 -45 0 -34 13 -52 33 -44 9 3
17 9 17 13 0 18 65 71 87 71 50 0 143 -71 143 -109 0 -5 8 -16 18 -23 12 -9
17 -26 16 -63 -1 -69 25 -239 36 -243 15 -5 12 -48 -5 -89 -8 -19 -15 -43 -15
-53 0 -41 -73 -65 -120 -40 -20 11 -33 1 -22 -17 11 -18 59 -33 103 -33 21 0
79 -9 127 -19 48 -11 139 -27 202 -36 63 -9 140 -23 170 -31 30 -9 71 -20 90
-25 43 -11 135 -37 176 -49 17 -6 55 -10 86 -10 49 0 78 7 153 39 11 5 36 15
55 21 19 7 54 22 78 33 l42 21 0 1048 c0 576 -2 1048 -5 1048 -3 0 -5 -6 -5
-14z m-1121 -1082 c25 -5 31 -11 29 -26 -2 -16 -12 -21 -46 -23 -47 -4 -64 13
-42 40 14 17 16 17 59 9z m844 -458 c7 -19 -1 -26 -30 -26 -25 0 -29 10 -11
28 16 16 35 15 41 -2z"/>
<path d="M30 4461 c-6 -13 -7 -22 0 -26 14 -9 50 13 50 30 0 22 -38 18 -50 -4z"/>
<path d="M15 4324 c-18 -14 -18 -14 2 -14 23 0 39 15 26 23 -5 3 -17 -1 -28
-9z"/>
<path d="M6275 4279 c-4 -13 -1 -27 9 -38 9 -10 16 -23 16 -29 0 -7 4 -20 9
-30 6 -9 18 -36 27 -59 15 -36 22 -43 46 -43 45 0 38 45 -16 102 -24 26 -44
53 -43 60 1 43 -4 58 -22 58 -11 0 -23 -9 -26 -21z"/>
<path d="M132 4245 c-13 -7 -19 -16 -14 -19 15 -9 42 4 42 20 0 8 -1 14 -2 13
-2 -1 -14 -7 -26 -14z"/>
<path d="M193 4233 c0 -10 7 -27 17 -38 30 -35 33 -46 14 -66 -17 -18 -17 -21
-1 -36 11 -11 17 -13 17 -5 0 7 9 12 20 12 16 0 20 7 20 30 0 23 -4 30 -20 30
-23 0 -24 4 -10 30 8 15 5 23 -19 39 -35 25 -38 26 -38 4z"/>
<path d="M161 4194 c0 -11 3 -14 6 -6 3 7 2 16 -1 19 -3 4 -6 -2 -5 -13z"/>
<path d="M0 4150 c0 -33 11 -38 30 -15 7 8 21 15 31 15 11 0 19 7 19 15 0 11
-11 15 -40 15 -38 0 -40 -2 -40 -30z"/>
<path d="M100 4170 c0 -5 7 -10 16 -10 8 0 12 5 9 10 -3 6 -10 10 -16 10 -5 0
-9 -4 -9 -10z"/>
<path d="M146 4145 c-3 -8 -1 -15 3 -15 5 0 11 7 15 15 3 8 1 15 -3 15 -5 0
-11 -7 -15 -15z"/>
<path d="M610 4146 c0 -9 7 -16 16 -16 9 0 14 5 12 12 -6 18 -28 21 -28 4z"/>
<path d="M462 4134 c-14 -24 -3 -54 19 -54 24 0 36 27 22 48 -14 23 -30 25
-41 6z"/>
<path d="M6185 3979 c-9 -13 20 -45 45 -52 27 -7 48 20 29 37 -20 19 -66 28
-74 15z"/>
<path d="M280 3750 c0 -5 9 -15 20 -22 11 -7 20 -21 20 -30 0 -10 5 -18 10
-18 13 0 13 6 -2 47 -8 21 -19 33 -30 33 -10 0 -18 -4 -18 -10z"/>
<path d="M6640 3690 c0 -5 5 -10 11 -10 5 0 7 5 4 10 -3 6 -8 10 -11 10 -2 0
-4 -4 -4 -10z"/>
<path d="M6661 3648 c1 -27 15 -52 23 -40 4 6 2 21 -4 32 -12 23 -20 26 -19 8z"/>
<path d="M6674 3385 c-6 -22 -11 -25 -55 -25 -26 0 -59 5 -73 11 -14 7 -32 9
-42 5 -16 -6 -16 -8 1 -26 10 -11 31 -20 47 -20 15 0 50 -11 76 -24 61 -31 84
-37 101 -27 12 8 12 13 0 40 -8 17 -21 31 -29 31 -12 0 -12 2 -1 9 10 7 11 13
2 30 -15 27 -19 27 -27 -4z"/>
<path d="M6750 3273 c0 -10 91 -55 98 -49 9 9 -10 26 -29 26 -10 0 -19 7 -19
15 0 9 -9 15 -25 15 -14 0 -25 -3 -25 -7z"/>
<path d="M7158 3058 c9 -9 15 -9 24 0 9 9 7 12 -12 12 -19 0 -21 -3 -12 -12z"/>
<path d="M7245 3002 c45 -41 115 -78 115 -61 0 6 -14 31 -32 55 -29 41 -34 44
-77 44 l-46 0 40 -38z"/>
<path d="M7010 2957 c0 -10 39 -47 49 -47 17 0 13 14 -9 33 -18 15 -40 23 -40
14z"/>
<path d="M3703 2477 c-18 -35 -33 -68 -33 -74 0 -18 42 -43 72 -43 34 0 44
-16 24 -39 -9 -9 -27 -47 -40 -84 -13 -36 -31 -74 -40 -83 -21 -21 -12 -34 24
-34 37 0 56 -30 42 -68 -9 -25 -11 -44 -16 -137 -1 -32 2 -33 60 -20 22 5 33
3 36 -7 3 -7 -4 -76 -14 -153 -23 -167 -26 -220 -13 -219 6 1 20 5 31 8 42 13
54 -15 56 -137 3 -149 3 -189 -3 -342 -7 -160 -19 -194 -81 -224 -24 -11 -51
-21 -60 -21 -9 0 -21 -14 -27 -30 -8 -26 -7 -33 11 -49 11 -11 26 -17 33 -15
19 8 26 -34 8 -45 -14 -7 -13 -12 6 -40 12 -17 34 -34 49 -38 15 -3 52 -19 82
-35 30 -15 62 -28 70 -28 9 0 21 -5 27 -11 17 -17 43 -3 43 23 1 27 69 100 96
103 11 1 41 5 67 10 42 7 51 5 69 -14 15 -17 27 -21 49 -16 50 11 69 -1 69
-46 0 -22 5 -50 11 -62 9 -16 9 -22 0 -25 -17 -6 -13 -30 11 -62 l22 -30 -23
-31 c-13 -17 -21 -32 -19 -33 14 -12 50 -26 68 -26 11 0 35 -10 52 -22 21 -16
32 -19 35 -11 2 7 11 9 19 6 10 -4 14 2 14 21 0 14 5 26 10 26 6 0 10 5 10 11
0 6 13 27 30 47 16 20 51 66 77 102 102 138 122 180 86 180 -26 -1 -104 -24
-128 -37 -11 -6 -37 -14 -58 -18 -33 -7 -37 -5 -37 14 0 11 -5 21 -11 21 -5 0
-3 10 5 22 9 12 16 36 16 53 0 51 19 103 45 123 14 11 25 23 25 27 0 13 26 31
65 43 34 11 50 11 94 3 2 -1 -2 -8 -9 -16 -9 -10 -9 -15 -1 -15 6 0 11 -11 11
-23 0 -27 23 -51 62 -66 25 -9 30 -7 58 28 16 22 30 43 30 47 1 5 20 31 44 57
28 31 46 62 51 85 3 20 20 81 37 134 29 91 31 101 19 145 -25 94 -54 259 -55
310 -1 28 -4 54 -7 58 -11 10 -155 62 -207 74 -26 6 -94 15 -151 20 -116 9
-116 9 -198 124 -17 24 -47 51 -67 61 -19 9 -38 21 -41 26 -4 6 -30 22 -58 36
-118 59 -122 77 -51 205 71 129 71 154 -1 182 -27 10 -59 23 -70 28 -34 14
-99 29 -128 29 -51 0 -201 42 -257 71 -80 42 -90 40 -127 -34z"/>
<path d="M8247 2503 c-21 -20 4 -103 30 -103 12 0 23 -33 23 -68 0 -12 4 -30
10 -40 5 -9 19 -42 30 -73 20 -54 38 -71 66 -62 8 3 9 14 4 36 -14 53 -30 152
-30 179 0 29 -37 119 -54 130 -14 10 -70 10 -79 1z"/>
<path d="M973 2393 c9 -2 23 -2 30 0 6 3 -1 5 -18 5 -16 0 -22 -2 -12 -5z"/>
<path d="M0 2255 l0 -45 61 0 c33 0 69 5 81 11 18 10 17 12 -17 30 -20 11 -39
17 -44 15 -4 -3 -20 4 -37 15 -16 10 -32 19 -36 19 -5 0 -8 -20 -8 -45z"/>
<path d="M160 2210 c0 -5 9 -10 21 -10 11 0 17 5 14 10 -3 6 -13 10 -21 10 -8
0 -14 -4 -14 -10z"/>
<path d="M3353 2185 c-6 -14 -9 -25 -7 -25 8 0 44 35 44 42 0 18 -26 6 -37
-17z"/>
<path d="M0 2142 c0 -31 5 -41 25 -52 31 -16 29 -45 -3 -44 l-22 1 0 -1024 0
-1023 2458 0 c2440 0 2457 1 2432 20 -14 11 -32 20 -41 20 -9 0 -22 7 -29 15
-7 8 -16 13 -20 10 -4 -2 -17 5 -30 17 -13 12 -30 22 -39 23 -76 8 -123 22
-162 46 -25 16 -53 29 -63 29 -20 0 -71 25 -105 51 -13 11 -34 19 -47 19 -27
0 -72 18 -165 66 -37 19 -73 34 -81 34 -43 0 -72 -105 -43 -160 17 -34 24 -97
12 -116 -7 -12 -77 5 -77 18 0 5 -11 8 -25 8 -17 0 -29 9 -40 30 -21 40 -20
42 25 89 29 29 40 50 40 71 0 18 5 30 13 30 24 0 41 44 27 69 -11 21 -87 61
-115 61 -7 0 -60 25 -118 55 -57 30 -113 55 -123 55 -10 0 -50 18 -89 40 -63
35 -164 86 -341 171 -33 16 -68 29 -77 29 -9 0 -73 35 -142 78 -184 114 -206
126 -255 146 -90 38 -177 79 -282 131 -94 47 -110 52 -143 45 -34 -8 -39 -6
-75 33 -26 28 -65 54 -117 76 -43 19 -80 37 -83 40 -17 19 -61 34 -112 39 -49
4 -63 10 -84 35 -35 42 -82 72 -145 92 -30 9 -85 32 -124 50 -38 18 -95 42
-125 53 -65 24 -150 64 -205 97 -22 14 -49 25 -60 25 -11 0 -33 9 -50 20 -20
13 -47 20 -80 20 -28 0 -56 5 -62 11 -13 13 -108 19 -165 12 -33 -5 -37 -9
-40 -37 -2 -25 -8 -32 -30 -34 -20 -2 -28 1 -28 12 0 8 -6 16 -12 19 -7 2 1
11 18 20 58 30 64 90 11 110 -10 4 -15 11 -12 17 3 5 -3 10 -14 10 -11 0 -22
4 -26 10 -3 5 -11 7 -18 4 -7 -2 -30 2 -50 11 -20 8 -37 12 -37 9 0 -4 -8 0
-17 8 -19 16 -49 18 -71 4 -17 -10 -15 -46 3 -46 8 0 15 -7 15 -15 0 -8 -4
-15 -8 -15 -5 0 -19 -9 -32 -20 -22 -19 -22 -21 -6 -39 10 -11 31 -23 47 -26
28 -6 41 -34 17 -36 -7 -1 -2 -5 12 -9 24 -8 24 -8 -6 -9 -17 -1 -42 7 -55 18
-34 26 -66 34 -125 32 -45 -2 -56 2 -95 34 -24 19 -63 44 -86 56 -24 11 -43
24 -43 28 0 4 -18 16 -39 26 -54 24 -84 60 -71 84 5 10 17 21 26 25 21 8 80
-29 87 -54 7 -29 36 -36 68 -17 28 15 28 15 48 -19 12 -19 21 -42 21 -51 0
-11 5 -13 18 -7 9 4 35 9 57 12 l40 4 0 63 c1 57 -2 65 -22 74 -19 9 -27 7
-43 -9 -23 -23 -50 -17 -50 11 0 14 -7 19 -25 19 -14 0 -25 4 -25 10 0 5 6 7
13 5 6 -3 18 -1 26 4 12 7 10 14 -8 37 -22 27 -22 27 -28 6 -3 -12 -12 -22
-19 -22 -8 0 -14 -10 -14 -25 0 -17 -5 -25 -18 -25 -27 0 -62 37 -62 65 0 16
-6 25 -15 25 -8 0 -15 -4 -15 -9 0 -5 -5 -22 -10 -37 l-11 -28 -23 25 c-29 30
-74 69 -81 69 -3 0 -5 -17 -5 -38z m317 -138 c-3 -3 -12 -4 -19 -1 -8 3 -5 6
6 6 11 1 17 -2 13 -5z m413 -274 c10 -23 9 -35 -1 -60 -8 -16 -21 -30 -30 -30
-26 0 -79 60 -79 89 0 25 3 27 49 29 45 2 49 0 61 -28z m1380 -649 c0 -5 -7
-16 -15 -25 -8 -8 -15 -19 -15 -24 0 -13 -35 -21 -60 -15 -30 8 -24 26 18 50
39 23 72 29 72 14z"/>
<path d="M185 2163 c11 -3 28 -12 38 -21 15 -13 17 -14 17 0 0 15 -30 29 -60
27 -8 -1 -6 -3 5 -6z"/>
<path d="M8426 2151 c-3 -5 8 -22 24 -40 17 -17 30 -36 30 -42 0 -5 11 -25 25
-43 14 -18 25 -37 25 -43 0 -5 18 -35 40 -67 22 -31 40 -60 40 -64 0 -4 7 -16
15 -26 13 -18 15 -5 15 119 0 108 -3 136 -12 127 -18 -18 -45 -15 -60 7 -8 11
-30 22 -49 26 -20 4 -48 17 -62 31 -14 13 -28 20 -31 15z"/>
<path d="M6825 1907 c-11 -7 -22 -15 -25 -18 -3 -3 -18 -9 -34 -13 -17 -4 -46
-20 -65 -35 -20 -16 -43 -30 -51 -33 -33 -12 42 -20 85 -9 24 6 73 11 109 11
93 0 122 35 71 85 -26 27 -58 31 -90 12z"/>
<path d="M3116 1752 c-3 -5 -33 -20 -66 -33 -34 -13 -69 -31 -79 -40 -10 -9
-26 -19 -37 -23 -60 -20 -77 -71 -28 -81 13 -3 35 -7 49 -10 19 -4 27 -14 32
-35 4 -21 13 -32 29 -36 13 -3 24 -10 24 -14 0 -5 19 -13 43 -17 51 -10 58
-40 14 -61 -18 -9 -26 -19 -23 -28 3 -8 1 -14 -5 -14 -6 0 -9 -10 -7 -22 2
-15 13 -24 35 -30 18 -5 49 -18 68 -29 28 -17 33 -24 24 -35 -7 -9 -8 -14 -1
-14 6 0 18 -8 28 -17 10 -10 33 -17 58 -18 22 -1 54 -6 69 -13 16 -7 35 -12
43 -12 24 0 7 77 -37 162 -21 43 -39 85 -39 93 0 14 -23 90 -39 130 -5 11 -19
47 -31 80 -36 91 -60 125 -92 125 -15 0 -29 -4 -32 -8z"/>
<path d="M2364 1735 c22 -16 56 -20 56 -6 0 9 -34 21 -60 21 -11 -1 -10 -4 4
-15z"/>
<path d="M6495 1710 c-20 -22 -20 -22 0 -36 35 -26 59 3 32 39 -12 17 -14 17
-32 -3z"/>
<path d="M2446 1695 c4 -8 10 -15 16 -15 5 0 7 -4 3 -9 -3 -5 -1 -12 5 -16 5
-3 10 1 10 9 0 9 7 16 16 16 14 0 14 3 4 15 -7 8 -23 15 -36 15 -17 0 -22 -4
-18 -15z"/>
<path d="M6405 1520 c3 -4 -2 -10 -10 -14 -20 -7 -19 -22 1 -30 19 -7 44 10
44 29 0 7 -9 15 -20 18 -11 3 -18 2 -15 -3z"/>
<path d="M8146 1055 c-2 -7 2 -16 10 -19 8 -3 14 -14 14 -26 0 -11 8 -29 17
-40 19 -22 39 -28 26 -7 -4 6 -8 17 -8 22 0 6 -4 24 -8 41 -8 33 -42 52 -51
29z"/>
<path d="M8303 735 c-6 -11 -19 -51 -28 -90 -10 -38 -21 -74 -25 -80 -5 -5
-17 -46 -28 -90 -23 -92 -53 -177 -70 -197 -6 -8 -17 -38 -23 -66 -7 -29 -18
-52 -25 -52 -14 0 -28 -56 -22 -85 3 -18 8 -15 62 46 12 15 34 30 47 34 13 4
31 16 40 26 9 11 21 19 27 19 6 0 22 13 35 30 16 19 27 25 30 17 3 -6 6 -3 6
9 1 11 10 29 21 39 20 18 60 88 60 105 0 5 11 35 26 65 18 41 26 75 27 129 2
79 -10 106 -46 106 -37 0 -96 23 -99 39 -3 13 -6 13 -15 -4z"/>
<path d="M3700 684 c0 -8 5 -12 10 -9 6 4 8 11 5 16 -9 14 -15 11 -15 -7z"/>
<path d="M4368 388 c9 -9 15 -9 24 0 9 9 7 12 -12 12 -19 0 -21 -3 -12 -12z"/>
<path d="M4684 205 c11 -8 23 -15 28 -15 4 0 8 -7 8 -15 0 -8 6 -15 13 -15 19
0 67 -24 67 -33 0 -5 4 -6 9 -3 5 3 14 -1 21 -9 7 -8 21 -15 31 -15 11 0 19
-4 19 -10 0 -5 7 -10 15 -10 9 0 29 -13 45 -30 17 -17 47 -34 72 -40 52 -12
288 -13 288 -2 0 17 -55 33 -146 42 -119 11 -232 38 -256 62 -10 10 -29 18
-43 18 -14 0 -28 6 -31 14 -3 8 -13 17 -22 20 -9 3 -24 10 -32 15 -22 14 -87
41 -97 41 -4 0 1 -7 11 -15z"/>
</g>
</svg>
